<svg width="256" height="256" viewBox="0 0 256 256" fill="none" xmlns="http://www.w3.org/2000/svg">
<path d="M194.915 44.7448C186.046 37.6621 176.437 32.1075 166.091 28.0808" stroke="#59907C" stroke-width="2"/>
<path d="M166.091 28.0807C152.304 22.7421 138.016 20.3394 123.227 20.8727" stroke="#669681" stroke-width="2"/>
<path d="M123.227 20.8726C91.712 22.6326 66.016 35.6486 46.1387 59.9206" stroke="#7DA691" stroke-width="2"/>
<path d="M212.603 194.568C232.907 167.728 239.203 131.832 230.035 99.5125" stroke="#4C8C73" stroke-width="2"/>
<path d="M230.035 99.5126C224.051 77.278 212.344 59.022 194.915 44.7446" stroke="#5A937F" stroke-width="2"/>
<path d="M46.1384 59.9207L40.6904 67.0247" stroke="#7CA18D" stroke-width="2"/>
<path d="M40.6909 67.0249C35.2669 75.0622 30.8989 83.7289 27.5869 93.0249" stroke="#759C88" stroke-width="2"/>
<path d="M27.5872 93.0249C25.2619 99.8996 23.6326 106.878 22.6992 113.961" stroke="#65917D" stroke-width="2"/>
<path d="M22.6983 113.961C19.9143 134.446 22.421 153.977 30.2184 172.553" stroke="#598B78" stroke-width="2"/>
<path d="M30.2188 172.553C40.9707 197.049 60.2827 217.537 85.2107 227.721" stroke="#4B846D" stroke-width="2"/>
<path d="M85.2109 227.721L86.5549 228.329" stroke="#65917D" stroke-width="2"/>
<path d="M86.5547 228.329L92.2747 230.393C92.8134 230.59 92.8987 230.451 92.5307 229.977C92.1787 229.523 92.224 229.027 92.6667 228.489C92.8114 228.313 92.888 228.091 92.8827 227.865C92.808 222.771 92.9893 217.689 93.4267 212.617C93.4373 212.489 93.5067 212.425 93.6347 212.425C93.7147 212.425 93.7973 212.427 93.8827 212.433C94.128 212.454 94.2507 212.587 94.2507 212.833V230.777C94.2507 231.022 94.3653 231.182 94.5947 231.257C107.027 235.246 119.781 236.873 132.859 236.137" stroke="#4B846D" stroke-width="2"/>
<path d="M123.226 20.8726L126.186 21.0406C126.485 21.0619 126.589 21.2139 126.498 21.4966C125.818 23.6406 124.322 25.6566 123.626 27.3206C122.032 31.1072 120.944 35.0512 120.362 39.1526" stroke="#B3D4AA" stroke-width="2"/>
<path d="M120.363 39.1527C112.395 36.6167 102.003 37.6167 99.2266 46.8247C99.1306 47.1554 99.224 47.6914 99.5066 48.4327C99.6186 48.7154 99.5253 48.8407 99.2266 48.8087C96.2293 48.4887 93.2373 48.1874 90.2506 47.9047C82.1626 47.1367 73.5626 51.5287 72.0986 60.1207" stroke="#8E9179" stroke-width="2"/>
<path d="M72.0984 60.1207C71.8264 60.5367 71.5224 60.71 71.1864 60.6407C70.9304 60.5927 70.8104 60.438 70.8264 60.1767L70.8745 59.5927C70.9065 59.1714 70.7464 59.078 70.3944 59.3127C66.4024 62.0327 61.9864 64.9847 57.4104 66.5847C55.1304 67.3767 53.1224 68.6887 50.8264 69.1927C49.8024 69.4167 48.7758 69.6434 47.7464 69.8727C47.4691 69.9367 47.2105 69.8914 46.9705 69.7367L44.0504 67.8887C43.8211 67.7447 43.5891 67.7447 43.3544 67.8887L41.8504 68.8247C41.4878 69.0487 41.3945 68.926 41.5705 68.4567C41.7785 67.918 41.4851 67.4407 40.6904 67.0247" stroke="#C3DFB5" stroke-width="2"/>
<path d="M166.091 28.0808C163.99 29.8568 163.056 32.1661 163.291 35.0088C163.317 35.3025 163.268 35.5973 163.147 35.8648C162.326 37.7261 161.779 39.6595 161.507 41.6648C161.475 41.9048 161.39 42.1261 161.251 42.3288C159.87 44.4035 160.304 46.5181 162.555 48.6728" stroke="#90BE95" stroke-width="2"/>
<path d="M162.554 48.6727L154.034 48.1847C153.762 48.1687 153.546 48.0514 153.386 47.8327C150.186 43.4487 144.018 38.4887 138.938 37.5047C134.202 36.5927 131.97 39.4807 129.33 42.9127C129.176 43.1101 128.984 43.1554 128.754 43.0487L120.362 39.1527" stroke="#778169" stroke-width="2"/>
<path d="M230.034 99.5126C229.368 99.6139 228.624 99.238 227.802 98.3846C227.349 97.9206 226.922 97.238 226.522 96.3366C224.373 91.4673 221.797 87.2513 218.794 83.6886C213.546 77.4646 192.362 53.1606 183.114 55.4886C182.848 55.5579 182.698 55.7286 182.666 56.0006C182.426 58.0646 183.666 59.6566 183.914 61.2326C184.229 63.2113 184.426 65.2113 184.506 67.2326C184.513 67.3549 184.554 67.4726 184.623 67.5729C184.692 67.6731 184.787 67.752 184.898 67.8006C185.33 67.9846 191.066 68.8566 189.306 69.8806" stroke="#75B185" stroke-width="2"/>
<path d="M189.307 69.8808L183.171 68.7688" stroke="#587760" stroke-width="2"/>
<path d="M183.17 68.7687C183.501 65.4087 183.218 62.358 182.322 59.6167" stroke="#506354" stroke-width="2"/>
<path d="M182.323 59.6166C179.163 52.6406 169.851 50.0646 162.555 48.6726" stroke="#6B7B64" stroke-width="2"/>
<path d="M182.323 59.617L181.691 59.625C181.621 59.6258 181.552 59.6439 181.491 59.6776C181.43 59.7113 181.378 59.7596 181.34 59.8182C181.302 59.8768 181.279 59.9438 181.273 60.0134C181.268 60.0829 181.279 60.1529 181.307 60.217C182.085 61.9983 182.397 63.8623 182.243 65.809C182.189 66.5023 182.083 66.5103 181.923 65.833C179.203 54.625 163.699 50.521 153.707 49.633C152.899 49.561 152.035 48.977 151.715 48.353C149.499 44.001 146.339 43.209 141.547 42.081C137.355 41.089 130.595 40.217 131.331 46.817C131.363 47.1263 131.245 47.2063 130.979 47.057C130.392 46.7263 129.952 46.2436 129.659 45.609C129.554 45.3833 129.391 45.1877 129.187 45.041C123.949 41.2756 118.061 39.6996 111.523 40.3129C107.259 40.7129 102.931 42.657 101.443 47.025C101.139 47.921 101.539 49.553 100.051 50.017C97.1386 50.929 93.8426 49.897 91.6426 49.761C81.1146 49.129 73.7466 53.529 72.3066 64.617" stroke="#372628" stroke-width="2"/>
<path d="M72.3065 64.6166C71.7359 63.6353 71.6665 62.1366 72.0985 60.1206" stroke="#878C74" stroke-width="2"/>
<path d="M183.17 68.7688C180.722 68.9608 183.754 70.3528 184.498 70.4568C185.773 70.6275 187.05 70.7688 188.33 70.8808" stroke="#252224" stroke-width="2"/>
<path d="M188.33 70.8809C194.922 74.7529 194.082 82.0168 192.858 88.7128" stroke="#403434" stroke-width="2"/>
<path d="M192.858 88.7126C192.042 88.318 191.77 89.006 192.042 90.7767" stroke="#252224" stroke-width="2"/>
<path d="M192.043 90.7766C191.355 88.6593 191.104 86.5419 191.291 84.4246C191.331 84.0086 191.187 83.8086 190.867 83.5846C190.685 83.4566 190.579 83.2806 190.547 83.0566L189.819 77.6486C189.793 77.4666 189.717 77.2953 189.601 77.1533C189.484 77.0114 189.33 76.9044 189.157 76.844C188.983 76.7837 188.796 76.7723 188.617 76.8113C188.437 76.8502 188.272 76.9378 188.139 77.0646C186.491 78.6593 184.536 79.3873 182.275 79.2486C182.162 79.2416 182.051 79.2725 181.958 79.3363C181.865 79.4001 181.796 79.4932 181.763 79.6006C181.619 80.0433 181.291 80.3499 180.779 80.5206C179.747 80.8726 174.035 83.1766 173.523 83.8166C173.357 84.0193 173.147 84.1073 172.891 84.0806C168.491 83.6539 164.109 83.7286 159.747 84.3046C157.003 84.6646 154.275 84.0886 151.195 84.3606C144.368 84.9686 136.72 85.0619 128.251 84.6406C127.915 84.6193 127.555 84.7073 127.171 84.9046C126.931 85.0273 126.677 85.0673 126.411 85.0246C121.403 84.2086 116.48 84.4513 111.643 85.7526" stroke="#150912" stroke-width="2"/>
<path d="M111.643 85.7529C101.686 85.5929 91.5577 85.3555 81.2591 85.0409C80.0911 85.0089 79.2991 84.5929 78.8431 85.9769C74.9284 97.6782 71.8964 108.726 69.7471 119.121" stroke="#8C5634" stroke-width="2"/>
<path d="M69.7468 119.121C68.8934 123.307 68.4374 127.47 68.3788 131.609C68.3761 131.65 68.3591 131.689 68.3308 131.719C68.3024 131.748 68.2644 131.767 68.2235 131.772C68.1825 131.777 68.1412 131.767 68.1067 131.745C68.0723 131.722 68.0468 131.688 68.0348 131.649C67.8108 130.625 67.3575 128.817 66.6748 126.225C66.0721 123.953 64.9335 121.865 63.2588 119.961" stroke="#8C5B3A" stroke-width="2"/>
<path d="M63.2588 119.961C61.0668 112.724 59.6641 105.78 59.0508 99.1289" stroke="#506354" stroke-width="2"/>
<path d="M59.0508 99.1287C59.2988 95.3847 61.2668 90.2967 59.7468 87.0327" stroke="#5C6959" stroke-width="2"/>
<path d="M59.7468 87.0325C58.6535 84.9151 58.1522 82.6965 58.2428 80.3765" stroke="#6C7464" stroke-width="2"/>
<path d="M58.2432 80.3766C58.9898 81.1873 59.3072 82.2353 59.1952 83.5206C59.1743 83.7612 59.2215 84.0024 59.3312 84.2166L61.2432 87.8006C61.3169 87.938 61.4373 88.0446 61.5825 88.1013C61.7278 88.158 61.8885 88.1611 62.0358 88.1101C62.1831 88.0591 62.3075 87.9572 62.3865 87.8228C62.4656 87.6884 62.4942 87.5302 62.4672 87.3766C61.7312 83.2326 60.4832 80.1126 61.6752 75.4406C63.1392 69.6806 66.7872 69.8886 71.7472 69.4166C71.8565 69.4066 71.9625 69.3736 72.0581 69.3196C72.1537 69.2656 72.2368 69.1919 72.3018 69.1035C72.3668 69.015 72.4123 68.9137 72.4353 68.8064C72.4583 68.699 72.4583 68.588 72.4352 68.4806C72.3125 67.926 72.1872 67.766 72.0592 68.0006" stroke="#372628" stroke-width="2"/>
<path d="M72.0583 68.0007C71.9303 66.3794 72.013 65.2514 72.3063 64.6167" stroke="#6C7464" stroke-width="2"/>
<path d="M212.603 194.569C198.443 212.558 180.393 225.044 158.451 232.025C158.078 232.142 157.272 232.169 156.035 232.105" stroke="#4B8971" stroke-width="2"/>
<path d="M156.035 232.105L155.363 213.065C155.358 212.91 155.299 212.883 155.187 212.985C154.843 213.281 154.843 230.353 154.747 232.377" stroke="#3E795A" stroke-width="2"/>
<path d="M154.746 232.376C154.45 233.976 135.154 235.968 132.858 236.136" stroke="#4B8971" stroke-width="2"/>
<path d="M86.5547 228.329C87.216 216.11 91.6214 205.39 99.7707 196.169C101.243 194.505 102.869 193.393 104.651 192.833" stroke="#82B78A" stroke-width="2"/>
<path d="M104.65 192.833C106.042 201.489 110.466 206.073 118.258 209.601C119.213 210.033 120.92 210.179 123.378 210.041" stroke="#5F9E6C" stroke-width="2"/>
<path d="M123.379 210.041C129.955 209.006 135.198 205.078 139.107 198.257" stroke="#B2AF71" stroke-width="2"/>
<path d="M139.106 198.256L141.034 192.041" stroke="#B2A96A" stroke-width="2"/>
<path d="M141.035 192.041C155.811 195.001 160.379 216.881 162.115 229.177C162.179 229.619 162.389 229.827 162.747 229.801C162.949 229.785 163.04 229.675 163.019 229.473C162.064 219.563 160.069 210.955 157.035 203.649C154.256 196.961 148.904 192.819 140.979 191.225" stroke="#82B78A" stroke-width="2"/>
<path d="M140.978 191.225L130.41 189.313C130.154 189.265 129.992 189.116 129.922 188.865C129.645 187.825 129.736 186.878 130.194 186.025C130.264 185.894 130.364 185.782 130.486 185.699C130.609 185.615 130.75 185.562 130.898 185.545C138.973 184.692 146.666 182.486 153.978 178.929" stroke="#B2A96A" stroke-width="2"/>
<path d="M153.979 178.929C165.669 172.918 174.133 163.622 179.371 151.041C179.402 150.962 179.46 150.897 179.535 150.856C179.609 150.815 179.695 150.801 179.779 150.817C182.76 151.329 185.547 151.049 188.139 149.977" stroke="#B1A465" stroke-width="2"/>
<path d="M188.139 149.977C198.899 145.225 208.035 126.025 191.083 121.865" stroke="#B2C98E" stroke-width="2"/>
<path d="M191.083 121.865C192.47 118.921 193.112 116.545 193.011 114.737" stroke="#3B5742" stroke-width="2"/>
<path d="M193.011 114.737C195.197 109.553 195.891 103.966 195.091 97.9769C194.675 94.8782 193.957 92.2675 192.939 90.1448C192.832 89.9155 192.869 89.7102 193.051 89.5289C195.963 86.6249 196.787 79.8409 196.011 76.6729C195.205 73.4035 192.971 71.1395 189.307 69.8809" stroke="#4A7054" stroke-width="2"/>
<path d="M96.819 201.385C93.299 203.841 93.2509 208.625 96.8829 211.321C96.9893 211.4 97.1129 211.453 97.2436 211.475C97.3743 211.497 97.5084 211.488 97.6349 211.449C99.6296 210.83 101.144 209.611 102.179 207.793C102.307 207.579 102.347 207.35 102.299 207.105C101.755 204.345 99.651 202.665 97.355 201.361C97.1736 201.254 96.995 201.262 96.819 201.385Z" stroke="#75B185" stroke-width="2"/>
<path d="M72.0592 68.0006C63.2325 67.4193 58.6272 71.5446 58.2432 80.3766" stroke="#878C74" stroke-width="2"/>
<path d="M59.7469 87.0326L59.1149 87.2006C58.9069 87.2539 58.7336 87.198 58.5949 87.0326L56.4509 84.4806C56.3515 84.3645 56.2111 84.2914 56.059 84.2765C55.9069 84.2616 55.755 84.306 55.6349 84.4006C54.8456 85.0193 54.3043 85.8166 54.0109 86.7926C53.9983 86.8344 53.9711 86.8703 53.9344 86.8939C53.8977 86.9175 53.8538 86.9274 53.8105 86.9216C53.7673 86.9158 53.7274 86.8948 53.6982 86.8624C53.669 86.83 53.6522 86.7882 53.6509 86.7446V86.4086C53.6534 86.3616 53.6385 86.3153 53.6091 86.2786C53.5797 86.2418 53.5378 86.2172 53.4914 86.2093C53.445 86.2014 53.3973 86.2108 53.3574 86.2358C53.3175 86.2607 53.2882 86.2994 53.275 86.3446C52.7256 87.9339 51.6723 89.03 50.1149 89.6326C50.0551 89.6574 49.989 89.6629 49.9259 89.6485C49.8627 89.634 49.8057 89.6003 49.7626 89.5519C49.7195 89.5035 49.6925 89.443 49.6854 89.3786C49.6783 89.3142 49.6914 89.2492 49.7229 89.1926L52.3069 84.4646C52.3429 84.3983 52.3566 84.3223 52.346 84.2477C52.3355 84.173 52.3013 84.1038 52.2485 84.05C52.1956 83.9963 52.1269 83.9609 52.0525 83.9491C51.978 83.9374 51.9018 83.9498 51.8349 83.9846L37.0029 91.5606C36.913 91.6066 36.8121 91.6267 36.7115 91.6186C36.6108 91.6104 36.5144 91.5745 36.4331 91.5147C36.3517 91.4549 36.2885 91.3737 36.2507 91.2801C36.2129 91.1864 36.2019 91.0841 36.2189 90.9846C36.3149 90.4353 36.3016 89.8459 36.1789 89.2166C36.1705 89.1751 36.1537 89.1357 36.1296 89.1009C36.1054 89.0661 36.0745 89.0365 36.0385 89.0141C36.0026 88.9916 35.9624 88.9767 35.9206 88.9703C35.8787 88.9638 35.8359 88.966 35.7949 88.9766C34.2323 89.3606 32.6856 89.3046 31.1549 88.8086C30.8776 88.7233 30.6616 88.8006 30.5069 89.0406C29.6909 90.2993 29.2589 91.6646 29.2109 93.1366C29.2061 93.2807 29.1504 93.4235 29.0545 93.5384C28.9586 93.6532 28.829 93.7322 28.6898 93.7606C28.5506 93.7891 28.4114 93.7649 28.2983 93.6928C28.1851 93.6206 28.1057 93.5054 28.075 93.3686C28.0643 93.3206 27.9016 93.2059 27.5869 93.0246" stroke="#ACCFA5" stroke-width="2"/>
<path d="M193.011 114.737C194.158 105.985 193.835 97.9979 192.043 90.7766" stroke="#1E1D1D" stroke-width="2"/>
<path d="M192.858 88.7128C194.677 85.9715 195.391 82.6142 195.002 78.6408C194.522 73.6702 192.298 71.0835 188.33 70.8809" stroke="#49483F" stroke-width="2"/>
<path d="M191.083 121.865C191.403 121.737 191.379 121.921 191.011 122.417" stroke="#857657" stroke-width="2"/>
<path d="M191.011 122.417C186.531 124.553 185.147 128.409 183.091 132.353C182.813 132.891 182.672 132.859 182.667 132.257C182.579 117.465 180.427 102.601 178.067 88.0247C178.052 87.9264 178.003 87.8364 177.928 87.7706C177.853 87.7048 177.758 87.6673 177.659 87.6647L111.643 85.7527" stroke="#85512E" stroke-width="2"/>
<path d="M59.0512 99.1289L59.0432 100.329C59.0432 100.388 59.0166 100.404 58.9632 100.377L58.6752 100.217C58.5472 100.153 58.4379 100.177 58.3472 100.289C57.3499 101.548 56.8139 102.993 56.7392 104.625C56.6112 107.425 52.0432 112.617 50.1232 114.833C49.9366 115.046 49.7499 115.049 49.5632 114.841C47.7712 112.841 46.6619 110.769 46.2352 108.625C45.8459 106.673 45.4352 104.726 45.0032 102.785C44.9552 102.582 44.8726 102.396 44.7552 102.225C44.3926 101.681 44.1179 101.55 43.9312 101.833C43.8032 102.03 43.6245 102.097 43.3952 102.033C41.0432 101.369 39.4752 103.817 37.2512 105.065C36.4672 105.508 35.6326 106.145 34.7472 106.977C32.4512 109.153 29.6992 109.777 27.4032 111.689C26.1126 112.756 24.7712 113.772 23.3792 114.737C23.1179 114.918 22.9446 114.857 22.8592 114.553L22.6992 113.961" stroke="#90BE95" stroke-width="2"/>
<path d="M191.011 122.417L191.843 123.273C192.035 123.47 192.264 123.593 192.531 123.641C197.555 124.529 199.027 131.465 198.139 135.497C197.675 137.598 196.741 139.942 195.339 142.529C193.744 145.473 191.344 147.955 188.139 149.977" stroke="#FCC37A" stroke-width="2"/>
<path d="M153.978 178.929C153.792 177.398 154.371 176.366 155.715 175.833C155.832 175.787 155.931 175.703 155.995 175.594C156.059 175.485 156.084 175.358 156.067 175.233C155.675 172.529 157.259 172.361 158.651 170.881C162.037 167.275 164.114 162.937 164.882 157.865" stroke="#FCA356" stroke-width="2"/>
<path d="M164.882 157.865C165.762 157.364 166.872 156.604 168.21 155.585C173.714 151.409 162.666 147.825 160.49 147.297" stroke="#F48343" stroke-width="2"/>
<path d="M160.491 147.297C159.984 146.422 160.219 145.641 161.195 144.953" stroke="#FCA95C" stroke-width="2"/>
<path d="M161.194 144.953C165.114 144.558 167.386 143.094 168.01 140.561" stroke="#F3C095" stroke-width="2"/>
<path d="M168.01 140.561C172.65 128.833 158.354 115.529 147.066 122.345" stroke="#81522C" stroke-width="2"/>
<path d="M147.066 122.345L146.69 119.273" stroke="#FCA95C" stroke-width="2"/>
<path d="M146.69 119.273C151.954 116.905 157.186 116.529 162.386 118.145C164.586 118.825 171.386 123.769 173.21 121.577C173.503 121.227 173.672 120.791 173.692 120.336C173.712 119.88 173.582 119.431 173.322 119.057C167.685 110.881 160.05 107.713 150.418 109.553" stroke="#81522C" stroke-width="2"/>
<path d="M150.419 109.552L149.067 109.176C148.81 109.104 148.594 108.938 148.467 108.712C148.003 107.912 147.32 107.382 146.419 107.12C146.387 107.115 146.36 107.123 146.338 107.144C146.28 107.192 146.24 107.256 146.219 107.336C146.192 107.459 146.125 107.486 146.019 107.416C142.723 105.056 139.171 103 134.923 102.952C126.227 102.864 119.77 102.648 112.154 104.968C110.21 105.56 108.138 106.928 105.858 107.664C105.357 107.824 104.992 108.174 104.763 108.712C104.651 108.974 104.453 109.091 104.171 109.064L100.354 108.712" stroke="#FCA356" stroke-width="2"/>
<path d="M100.355 108.713C90.0399 105.822 81.9839 108.465 76.1865 116.641" stroke="#81522C" stroke-width="2"/>
<path d="M76.1871 116.641C75.2271 117.153 74.8564 117.857 75.0751 118.753C75.1284 118.982 75.0804 119.187 74.9311 119.369L72.4831 122.313C72.3124 122.515 72.1844 122.491 72.0991 122.241C71.6404 120.961 70.8564 119.921 69.7471 119.121" stroke="#FCA356" stroke-width="2"/>
<path d="M192.266 136.057C195.634 128.913 186.802 126.769 184.562 134.865C183.794 137.66 182.962 140.457 182.066 143.257C182.045 143.318 182.043 143.385 182.06 143.448C182.077 143.51 182.112 143.567 182.161 143.61C182.209 143.652 182.27 143.68 182.334 143.688C182.399 143.697 182.464 143.686 182.522 143.657C183.258 143.31 183.904 142.822 184.458 142.193C184.634 141.99 184.848 141.846 185.098 141.761C188.65 140.556 191.04 138.654 192.266 136.057Z" stroke="#F48343" stroke-width="2"/>
<path d="M63.2581 119.96C62.7408 119.806 62.3754 119.824 62.1621 120.016" stroke="#C0B076" stroke-width="2"/>
<path d="M62.1622 120.017C55.1942 115.569 50.5462 125.441 51.1062 130.921C51.7035 136.793 54.5941 141.542 59.7781 145.169" stroke="#C0D09A" stroke-width="2"/>
<path d="M59.7787 145.169C58.7787 148.297 66.2667 153.777 61.1867 156.273C60.8774 156.427 60.6667 156.339 60.5547 156.009C60.3734 155.454 60.4267 154.921 60.7147 154.409C60.7908 154.27 60.8153 154.109 60.784 153.954C60.7526 153.798 60.6674 153.659 60.5437 153.562C60.4201 153.464 60.2661 153.414 60.1096 153.421C59.9532 153.429 59.8046 153.492 59.6907 153.601C58.0267 155.153 56.1254 156.23 53.9867 156.833C53.7627 156.897 53.6134 157.035 53.5387 157.249L52.7627 159.409C52.7201 159.532 52.6417 159.639 52.5377 159.718C52.4337 159.796 52.3087 159.842 52.1787 159.849C50.7067 159.929 46.0987 159.857 45.4267 161.201C45.2987 161.451 45.1014 161.619 44.8347 161.705C43.112 162.227 42.2427 163.409 42.2267 165.249C42.224 165.392 42.186 165.532 42.1162 165.656C42.0463 165.78 41.9469 165.885 41.8267 165.961C40.9787 166.494 40.1147 166.998 39.2347 167.473C36.1227 169.153 36.5787 167.633 35.5467 171.537C35.469 171.821 35.2932 172.068 35.0507 172.233L33.1228 173.513C32.8934 173.667 32.6507 173.686 32.3947 173.569L30.2188 172.553" stroke="#75B185" stroke-width="2"/>
<path d="M150.418 109.553C146.568 110.513 143.784 112.406 142.066 115.233C141.162 116.713 140.938 118.833 142.794 119.585" stroke="#825732" stroke-width="2"/>
<path d="M142.795 119.585C142.203 120.07 141.685 120.747 141.243 121.617C140.163 123.705 135.179 122.513 132.867 123.497C132.626 123.601 132.364 123.64 132.107 123.609C123.707 122.713 117.587 126.017 110.123 129.113C109.083 129.545 107.923 130.462 106.643 131.865" stroke="#FCAE62" stroke-width="2"/>
<path d="M106.643 131.865C106.339 130.579 105.995 129.803 105.611 129.537" stroke="#F4C59B" stroke-width="2"/>
<path d="M105.611 129.537C105.717 128.411 105.341 127.225 104.483 125.977C99.1626 118.209 90.3786 117.433 83.7066 123.617C80.0746 126.969 76.5226 133.793 79.1466 138.753" stroke="#825732" stroke-width="2"/>
<path d="M79.1465 138.753C79.6212 139.457 79.8932 140.585 79.9625 142.137" stroke="#F4C59B" stroke-width="2"/>
<path d="M79.9626 142.137C79.3332 142.35 79.2105 143.137 79.5945 144.497C79.703 144.883 79.6576 145.296 79.468 145.649C79.2783 146.001 78.9593 146.265 78.5785 146.385C76.1092 147.163 74.0239 148.534 72.3226 150.497C72.0826 150.763 72.0612 151.049 72.2586 151.353L74.1146 154.169C74.2906 154.435 74.5199 154.499 74.8025 154.361C75.8425 153.854 76.7812 154.03 77.6186 154.889C79.3839 156.686 81.4105 158.113 83.6985 159.169C84.3012 159.451 84.9226 159.787 85.5626 160.177C87.3146 161.265 88.4825 161.385 90.0505 162.857C93.2665 165.865 98.2826 170.313 102.907 171.393C103.029 171.422 103.157 171.42 103.278 171.387C103.4 171.353 103.512 171.289 103.603 171.201C104.227 170.587 104.939 170.355 105.739 170.505C105.984 170.553 106.227 170.545 106.467 170.481L108.011 170.065" stroke="#FCAE62" stroke-width="2"/>
<path d="M108.011 170.065C109.211 174.646 111.632 178.676 115.275 182.153" stroke="#AE5834" stroke-width="2"/>
<path d="M115.275 182.153C121.238 184.899 127.275 184.798 133.387 181.849" stroke="#E6703F" stroke-width="2"/>
<path d="M133.387 181.849C135.072 182.099 136.789 181.643 138.539 180.481C139.525 179.83 139.888 178.875 139.627 177.617C139.568 177.329 139.672 177.129 139.939 177.017C141.955 176.174 143.573 174.857 144.795 173.065C144.843 172.995 144.907 172.974 144.987 173.001C145.093 173.038 145.184 173.073 145.259 173.105C145.365 173.153 145.456 173.129 145.531 173.033C149.995 167.193 152.267 162.465 159.691 159.809C159.756 159.781 159.81 159.731 159.843 159.668C159.875 159.605 159.885 159.533 159.87 159.463C159.854 159.394 159.815 159.332 159.759 159.288C159.703 159.245 159.634 159.222 159.563 159.225C159.147 159.262 158.995 159.169 159.107 158.945" stroke="#FCAE62" stroke-width="2"/>
<path d="M159.106 158.945L164.882 157.865" stroke="#F58848" stroke-width="2"/>
<path d="M140.979 191.225C141.085 191.657 141.104 191.929 141.035 192.041" stroke="#CCB67B" stroke-width="2"/>
<path d="M139.107 198.256C137.451 195.456 133.371 195.673 130.795 193.473C130.566 193.275 130.451 193.329 130.451 193.633V194.2C130.451 194.424 130.347 194.494 130.139 194.409C127.792 193.481 125.374 193.233 122.883 193.665C122.859 193.667 122.834 193.66 122.815 193.645C122.796 193.63 122.783 193.609 122.779 193.585L122.739 193.385C122.707 193.193 122.595 193.089 122.403 193.073C117.395 192.705 116.027 197.473 110.779 197.233C110.571 197.222 110.379 197.161 110.203 197.049L108.747 196.104C108.486 195.934 108.302 195.995 108.195 196.289C107.88 197.163 107.99 197.968 108.523 198.704C108.72 198.971 108.654 199.131 108.323 199.185L107.459 199.321" stroke="#FCAE62" stroke-width="2"/>
<path d="M107.459 199.321C106.179 196.851 105.813 194.481 106.363 192.209C106.389 192.113 106.355 192.051 106.259 192.025C106.189 192.009 106.12 192.001 106.051 192.001" stroke="#A99D5D" stroke-width="2"/>
<path d="M106.051 192C106.237 191.787 106.299 191.502 106.235 191.145" stroke="#CCB67B" stroke-width="2"/>
<path d="M106.235 191.145C109.499 190.036 112.941 189.502 116.563 189.545C116.877 189.55 117.029 189.393 117.019 189.073L116.915 186.625C116.904 186.353 116.771 186.174 116.515 186.089C112.125 184.622 107.64 183.625 103.059 183.097C102.797 183.07 102.573 182.966 102.387 182.785C101.563 182.017 100.299 182.137 99.4106 181.769C95.5013 180.137 92.4506 178.748 90.2586 177.601C81.6266 173.081 72.9146 159.889 70.0186 150.537C69.5386 148.993 68.5546 148.369 67.3226 147.513C67.0986 147.358 66.8532 147.276 66.5866 147.265C64.4319 147.164 62.4506 146.652 60.6426 145.729" stroke="#B2A96A" stroke-width="2"/>
<path d="M60.6429 145.729C60.7336 145.526 60.7736 145.337 60.7629 145.161C60.7416 144.772 60.7069 144.556 60.6589 144.513C53.1469 138.241 50.2749 126.593 59.9069 120.577C60.1096 120.449 60.3335 120.398 60.5789 120.425C61.2509 120.51 61.7789 120.374 62.1629 120.017" stroke="#FCC87F" stroke-width="2"/>
<path d="M76.1868 116.64C75.9948 119.12 77.5708 120.192 79.4188 119.208C89.5948 113.776 94.3708 115.616 104.099 118.848C109.099 120.504 108.755 115.08 106.267 112.808C104.581 111.267 102.611 109.902 100.355 108.712" stroke="#825732" stroke-width="2"/>
<path d="M58.7065 129.729C58.3225 135.785 62.4425 138.481 67.4905 140.473C67.7571 140.579 67.8505 140.494 67.7705 140.217C66.2025 134.969 64.8265 131.182 63.6425 128.857C62.5785 126.777 58.9145 126.585 58.7065 129.729Z" stroke="#F58848" stroke-width="2"/>
<path d="M146.691 119.273L142.795 119.585" stroke="#825D38" stroke-width="2"/>
<path d="M60.6433 145.729C60.1846 145.547 59.8966 145.361 59.7793 145.169" stroke="#B2C98E" stroke-width="2"/>
<path d="M147.067 122.344C143.846 124.318 141.784 127.232 140.883 131.088" stroke="#825D38" stroke-width="2"/>
<path d="M140.882 131.089C139.752 133.75 139.688 136.707 140.69 139.961C141.97 144.121 144.858 145.833 149.066 145.657C153.141 145.486 157.184 145.251 161.194 144.953" stroke="#F4CBA1" stroke-width="2"/>
<path d="M160.491 147.296C154.224 145.819 149.427 147.411 146.099 152.072C145.879 152.376 145.769 152.745 145.785 153.12C145.801 153.496 145.942 153.857 146.187 154.144C149.312 157.808 153.619 159.408 159.107 158.944" stroke="#F58E4F" stroke-width="2"/>
<path d="M133.387 181.849L137.339 177.985" stroke="#E67645" stroke-width="2"/>
<path d="M137.338 177.985C140.805 173.222 142.178 167.82 141.458 161.777C141.416 161.43 141.277 161.388 141.042 161.649C139.242 163.625 136.154 163.713 133.45 163.737C126.906 163.806 120.376 163.702 113.858 163.425C111.544 163.324 109.09 162.401 106.498 160.657C106.28 160.508 106.194 160.564 106.242 160.825L108.01 170.065" stroke="#AE5E3A" stroke-width="2"/>
<path d="M79.9629 142.137C85.7762 144.537 92.0509 145.43 98.7869 144.817C102.675 144.465 105.094 142.465 106.043 138.817C106.662 136.427 106.862 134.11 106.643 131.865" stroke="#F4CBA1" stroke-width="2"/>
<path d="M99.7229 152.486C99.7215 151.7 99.443 150.923 98.9034 150.197C98.3638 149.472 97.5736 148.814 96.5779 148.26C95.5823 147.706 94.4006 147.268 93.1004 146.969C91.8003 146.671 90.4071 146.518 89.0003 146.521C87.5936 146.523 86.201 146.68 84.9019 146.983C83.6027 147.286 82.4226 147.729 81.4289 148.287C80.4352 148.844 79.6473 149.505 79.1102 150.232C78.5732 150.959 78.2975 151.738 78.2988 152.524C78.3002 153.309 78.5787 154.087 79.1183 154.812C79.6579 155.537 80.448 156.195 81.4437 156.749C82.4394 157.303 83.621 157.742 84.9212 158.04C86.2214 158.339 87.6146 158.491 89.0213 158.489C90.428 158.486 91.8207 158.329 93.1198 158.026C94.4189 157.723 95.599 157.28 96.5928 156.723C97.5865 156.165 98.3744 155.504 98.9114 154.777C99.4485 154.051 99.7242 153.272 99.7229 152.486Z" stroke="#F58E4F" stroke-width="2"/>
<path d="M118.106 147.625C116.917 147.86 116.458 148.844 116.73 150.577C116.773 150.844 116.93 150.988 117.202 151.009C119.13 151.145 120.346 151.457 120.138 148.961" stroke="#FCCE86" stroke-width="2"/>
<path d="M120.139 148.961C122.011 150.838 121.123 151.987 117.475 152.409C117.123 152.451 116.95 152.649 116.955 153.001L116.971 154.953C116.971 155.294 117.131 155.518 117.451 155.625C120.251 156.579 122.523 155.841 124.267 153.409C127.171 149.369 122.011 145.353 118.107 147.625" stroke="#F58F47" stroke-width="2"/>
<path d="M120.138 148.961L118.106 147.625" stroke="#F5A965" stroke-width="2"/>
<path d="M105.61 129.537C99.4425 125.961 94.8905 120.329 87.4265 124.769C82.1625 127.9 79.4025 132.561 79.1465 138.753" stroke="#797471" stroke-width="2"/>
<path d="M168.011 140.561C167.702 132.684 164.232 127.473 157.603 124.929C151.811 122.705 145.259 126.937 140.883 131.089" stroke="#797471" stroke-width="2"/>
<path d="M96.2294 143.338C97.9354 143.562 99.6858 142.909 101.096 141.523C102.505 140.136 103.459 138.129 103.747 135.944C104.035 133.758 103.633 131.573 102.63 129.868C101.627 128.164 100.105 127.081 98.3993 126.856C96.6933 126.631 94.9429 127.284 93.5331 128.671C92.1233 130.057 91.1696 132.064 90.8819 134.25C90.5942 136.436 90.9959 138.621 91.9987 140.325C93.0016 142.029 94.5234 143.113 96.2294 143.338Z" stroke="#797471" stroke-width="2"/>
<path d="M147.667 144.033C153.739 145.281 156.131 137.065 154.963 132.401C153.667 127.185 146.731 125.961 144.251 130.217C141.827 134.385 141.147 142.697 147.667 144.033Z" stroke="#797471" stroke-width="2"/>
<path d="M96.2427 133.249L97.6187 133.721C97.7878 133.779 97.9684 133.796 98.1456 133.77C98.3228 133.744 98.4913 133.676 98.637 133.571C98.7827 133.466 98.9014 133.328 98.9831 133.167C99.0648 133.007 99.1072 132.829 99.1067 132.649C99.1014 131.411 98.6107 130.59 97.6347 130.185C97.352 130.067 97.08 130.086 96.8187 130.241C95.88 130.79 95.5094 131.585 95.7067 132.625C95.7335 132.766 95.797 132.898 95.891 133.007C95.985 133.116 96.1063 133.2 96.2427 133.249Z" stroke="#797471" stroke-width="2"/>
<path d="M145.931 133.921L148.147 134.105C148.225 134.111 148.303 134.102 148.377 134.079C148.452 134.055 148.521 134.017 148.58 133.966C148.64 133.915 148.688 133.854 148.724 133.784C148.759 133.714 148.781 133.639 148.787 133.561L148.843 132.921C148.86 132.717 148.841 132.511 148.788 132.317C148.734 132.122 148.646 131.942 148.529 131.787C148.413 131.632 148.27 131.504 148.108 131.412C147.946 131.32 147.769 131.264 147.587 131.249L146.963 131.193C146.78 131.177 146.596 131.202 146.421 131.266C146.246 131.33 146.083 131.432 145.942 131.565C145.801 131.699 145.684 131.862 145.598 132.046C145.513 132.229 145.46 132.428 145.443 132.633L145.387 133.281C145.38 133.359 145.389 133.437 145.413 133.511C145.437 133.586 145.475 133.655 145.526 133.714C145.576 133.773 145.638 133.822 145.708 133.858C145.777 133.893 145.853 133.915 145.931 133.921Z" stroke="#797471" stroke-width="2"/>
<path d="M98.1656 132.781C98.2172 132.721 98.2531 132.649 98.2713 132.569C98.2895 132.488 98.2896 132.401 98.2716 132.311C98.2536 132.222 98.2179 132.133 98.1664 132.048C98.115 131.964 98.0489 131.886 97.9719 131.819C97.8949 131.753 97.8084 131.698 97.7175 131.659C97.6266 131.621 97.533 131.598 97.442 131.593C97.3511 131.588 97.2646 131.6 97.1874 131.63C97.1103 131.659 97.0441 131.705 96.9925 131.765C96.9409 131.824 96.9049 131.896 96.8868 131.977C96.8686 132.058 96.8685 132.145 96.8865 132.234C96.9045 132.324 96.9402 132.413 96.9916 132.497C97.043 132.582 97.1091 132.66 97.1861 132.726C97.2632 132.793 97.3496 132.847 97.4405 132.886C97.5314 132.925 97.625 132.948 97.716 132.953C97.8069 132.958 97.8935 132.945 97.9706 132.916C98.0477 132.886 98.114 132.841 98.1656 132.781Z" stroke="#C4D3BA" stroke-width="2"/>
<path d="M106.235 191.145C103.947 191.481 101.547 193.408 100.035 193.256C99.7682 193.23 99.5256 193.296 99.3069 193.456C89.5229 200.68 85.8989 215.985 85.2109 227.721" stroke="#82B78A" stroke-width="2"/>
<path d="M137.339 177.985C128.833 174.497 121.478 175.886 115.275 182.153" stroke="#982017" stroke-width="2"/>
<path d="M114.682 164.953C114.418 168.545 128.618 169.097 131.018 168.761C133.066 168.473 134.733 167.412 136.018 165.577C136.086 165.481 136.126 165.368 136.133 165.25C136.141 165.133 136.116 165.016 136.062 164.912C136.007 164.808 135.925 164.721 135.824 164.66C135.723 164.6 135.608 164.568 135.49 164.569L115.082 164.585C114.832 164.585 114.698 164.708 114.682 164.953Z" stroke="#AE7A75" stroke-width="2"/>
<path d="M106.05 192.001L104.65 192.833" stroke="#79AB7D" stroke-width="2"/>
<path d="M107.459 199.321C110.574 205.091 115.88 208.665 123.379 210.041" stroke="#A9A364" stroke-width="2"/>
<path d="M154.747 232.377C155.371 232.515 155.8 232.425 156.035 232.105" stroke="#225852" stroke-width="2"/>
<path d="M123.226 20.8726L126.186 21.0406C126.485 21.0619 126.589 21.2139 126.498 21.4966C125.818 23.6406 124.322 25.6566 123.626 27.3206C122.032 31.1072 120.944 35.0512 120.362 39.1526C112.394 36.6166 102.002 37.6166 99.2264 46.8246C99.1304 47.1552 99.2238 47.6912 99.5064 48.4326C99.6184 48.7152 99.5251 48.8406 99.2264 48.8086C96.2291 48.4886 93.2371 48.1872 90.2504 47.9046C82.1624 47.1366 73.5624 51.5286 72.0984 60.1206C71.8264 60.5366 71.5224 60.7099 71.1864 60.6405C70.9304 60.5925 70.8104 60.4379 70.8264 60.1766L70.8745 59.5926C70.9065 59.1712 70.7464 59.0779 70.3944 59.3125C66.4024 62.0325 61.9864 64.9846 57.4104 66.5846C55.1304 67.3766 53.1224 68.6885 50.8264 69.1926C49.8024 69.4165 48.7758 69.6432 47.7464 69.8726C47.4691 69.9366 47.2105 69.8912 46.9705 69.7366L44.0504 67.8885C43.8211 67.7445 43.5891 67.7445 43.3544 67.8885L41.8504 68.8246C41.4878 69.0486 41.3945 68.9259 41.5705 68.4566C41.7785 67.9179 41.4851 67.4406 40.6904 67.0246L46.1384 59.9206C66.0158 35.6486 91.7117 22.6326 123.226 20.8726Z" fill="#CAE4B9"/>
<path d="M123.227 20.8727C138.017 20.3394 152.305 22.7421 166.091 28.0807C163.99 29.8567 163.057 32.1661 163.291 35.0087C163.317 35.3024 163.268 35.5972 163.147 35.8647C162.326 37.726 161.779 39.6594 161.507 41.6647C161.475 41.9047 161.39 42.126 161.251 42.3287C159.87 44.4034 160.305 46.518 162.555 48.6727L154.035 48.1847C153.763 48.1687 153.547 48.0514 153.387 47.8327C150.187 43.4487 144.019 38.4887 138.939 37.5047C134.203 36.5927 131.971 39.4807 129.331 42.9127C129.177 43.11 128.985 43.1554 128.755 43.0487L120.363 39.1527C120.945 35.0514 122.033 31.1074 123.627 27.3207C124.323 25.6567 125.819 23.6407 126.499 21.4967C126.59 21.214 126.486 21.062 126.187 21.0407L123.227 20.8727Z" fill="#9CC49A"/>
<path d="M166.091 28.0806C176.438 32.1072 186.046 37.6619 194.915 44.7446C212.344 59.0219 224.051 77.2779 230.035 99.5126C229.368 99.6139 228.624 99.2379 227.803 98.3846C227.35 97.9206 226.923 97.2379 226.523 96.3366C224.374 91.4672 221.798 87.2512 218.795 83.6885C213.547 77.4646 192.363 53.1605 183.115 55.4886C182.848 55.5579 182.699 55.7286 182.667 56.0006C182.427 58.0646 183.667 59.6566 183.915 61.2326C184.23 63.2112 184.427 65.2112 184.507 67.2326C184.514 67.3548 184.554 67.4726 184.623 67.5728C184.693 67.6731 184.788 67.7519 184.899 67.8006C185.331 67.9846 191.067 68.8566 189.307 69.8806L183.171 68.7686C183.502 65.4086 183.219 62.3579 182.323 59.6166C179.163 52.6406 169.851 50.0646 162.555 48.6726C160.304 46.5179 159.87 44.4032 161.251 42.3286C161.39 42.1259 161.475 41.9046 161.507 41.6646C161.779 39.6592 162.326 37.7259 163.147 35.8646C163.268 35.597 163.317 35.3022 163.291 35.0086C163.056 32.1659 163.99 29.8566 166.091 28.0806Z" fill="#83B890"/>
<path d="M162.555 48.6727C169.851 50.0647 179.163 52.6407 182.323 59.6167L181.691 59.6247C181.621 59.6256 181.552 59.6437 181.491 59.6774C181.43 59.7111 181.378 59.7594 181.34 59.818C181.302 59.8765 181.279 59.9436 181.273 60.0131C181.267 60.0827 181.279 60.1526 181.307 60.2167C182.085 61.9981 182.397 63.8621 182.243 65.8088C182.189 66.5021 182.083 66.5101 181.923 65.8327C179.203 54.6247 163.699 50.5207 153.707 49.6327C152.899 49.5607 152.035 48.9767 151.715 48.3527C149.499 44.0007 146.339 43.2087 141.547 42.0807C137.355 41.0887 130.595 40.2167 131.331 46.8167C131.363 47.1261 131.245 47.2061 130.979 47.0567C130.392 46.7261 129.952 46.2434 129.659 45.6087C129.554 45.3831 129.391 45.1874 129.187 45.0407C123.949 41.2754 118.061 39.6994 111.523 40.3127C107.259 40.7127 102.931 42.6567 101.443 47.0247C101.139 47.9207 101.539 49.5527 100.051 50.0167C97.1385 50.9287 93.8425 49.8968 91.6425 49.7608C81.1145 49.1288 73.7465 53.5287 72.3065 64.6167C71.7359 63.6354 71.6665 62.1367 72.0985 60.1207C73.5625 51.5287 82.1625 47.1367 90.2505 47.9047C93.2372 48.1874 96.2292 48.4887 99.2265 48.8087C99.5252 48.8407 99.6185 48.7154 99.5065 48.4327C99.2239 47.6914 99.1305 47.1554 99.2265 46.8247C102.003 37.6167 112.395 36.6167 120.363 39.1527L128.755 43.0487C128.984 43.1554 129.176 43.1101 129.331 42.9127C131.971 39.4807 134.203 36.5927 138.939 37.5047C144.019 38.4887 150.187 43.4487 153.387 47.8327C153.547 48.0514 153.763 48.1687 154.035 48.1847L162.555 48.6727Z" fill="#523D38"/>
<path d="M182.323 59.6165C183.219 62.3578 183.502 65.4085 183.171 68.7685C180.723 68.9605 183.755 70.3525 184.499 70.4565C185.773 70.6271 187.051 70.7685 188.331 70.8805C194.923 74.7525 194.083 82.0165 192.859 88.7125C192.043 88.3178 191.771 89.0058 192.043 90.7765C191.355 88.6591 191.104 86.5418 191.291 84.4245C191.331 84.0085 191.187 83.8085 190.867 83.5845C190.686 83.4565 190.579 83.2805 190.547 83.0565L189.819 77.6485C189.793 77.4665 189.718 77.2951 189.601 77.1532C189.484 77.0112 189.331 76.9042 189.157 76.8439C188.983 76.7835 188.797 76.7722 188.617 76.8111C188.437 76.85 188.272 76.9377 188.139 77.0645C186.491 78.6591 184.536 79.3871 182.275 79.2485C182.162 79.2415 182.051 79.2724 181.958 79.3362C181.865 79.4 181.797 79.493 181.763 79.6005C181.619 80.0431 181.291 80.3498 180.779 80.5205C179.747 80.8725 174.035 83.1765 173.523 83.8165C173.358 84.0191 173.147 84.1071 172.891 84.0805C168.491 83.6538 164.109 83.7285 159.747 84.3045C157.003 84.6645 154.275 84.0885 151.195 84.3605C144.368 84.9685 136.72 85.0618 128.251 84.6405C127.915 84.6191 127.555 84.7071 127.171 84.9045C126.931 85.0271 126.678 85.0671 126.411 85.0245C121.403 84.2085 116.48 84.4511 111.643 85.7525C101.685 85.5925 91.5575 85.3551 81.2589 85.0405C80.0909 85.0085 79.2988 84.5925 78.8428 85.9765C74.9282 97.6778 71.8962 108.726 69.7468 119.12C68.8935 123.307 68.4375 127.47 68.3788 131.608C68.3762 131.65 68.3592 131.688 68.3308 131.718C68.3024 131.748 68.2645 131.767 68.2235 131.772C68.1826 131.777 68.1413 131.767 68.1068 131.744C68.0723 131.722 68.0468 131.688 68.0348 131.648C67.8108 130.624 67.3575 128.816 66.6749 126.224C66.0722 123.952 64.9335 121.864 63.2589 119.96C61.0669 112.723 59.6642 105.779 59.0508 99.1285C59.2988 95.3845 61.2668 90.2965 59.7468 87.0325C58.6535 84.9151 58.1522 82.6965 58.2428 80.3765C58.9895 81.1871 59.3068 82.2351 59.1948 83.5205C59.174 83.761 59.2211 84.0022 59.3308 84.2165L61.2428 87.8005C61.3166 87.9378 61.4369 88.0444 61.5822 88.1011C61.7274 88.1578 61.8881 88.161 62.0355 88.1099C62.1828 88.0589 62.3071 87.957 62.3862 87.8226C62.4652 87.6882 62.4939 87.53 62.4669 87.3765C61.7309 83.2325 60.4829 80.1125 61.6749 75.4405C63.1389 69.6805 66.7868 69.8885 71.7468 69.4165C71.8562 69.4065 71.9622 69.3734 72.0578 69.3194C72.1534 69.2654 72.2364 69.1917 72.3015 69.1033C72.3665 69.0148 72.412 68.9135 72.435 68.8062C72.458 68.6988 72.4579 68.5878 72.4348 68.4805C72.3122 67.9258 72.1869 67.7658 72.0589 68.0005C71.9309 66.3791 72.0135 65.2511 72.3068 64.6165C73.7468 53.5285 81.1148 49.1285 91.6428 49.7605C93.8428 49.8965 97.1388 50.9285 100.051 50.0165C101.539 49.5525 101.139 47.9205 101.443 47.0245C102.931 42.6565 107.259 40.7125 111.523 40.3125C118.062 39.6991 123.949 41.2751 129.187 45.0405C129.391 45.1872 129.554 45.3828 129.659 45.6085C129.952 46.2431 130.392 46.7258 130.979 47.0565C131.245 47.2058 131.363 47.1258 131.331 46.8165C130.595 40.2165 137.355 41.0885 141.547 42.0805C146.339 43.2085 149.499 44.0005 151.715 48.3525C152.035 48.9765 152.899 49.5605 153.707 49.6325C163.699 50.5205 179.203 54.6245 181.923 65.8325C182.083 66.5098 182.189 66.5018 182.243 65.8085C182.397 63.8618 182.086 61.9978 181.307 60.2165C181.279 60.1524 181.268 60.0824 181.274 60.0129C181.279 59.9433 181.302 59.8763 181.34 59.8177C181.378 59.7591 181.43 59.7108 181.491 59.6771C181.552 59.6434 181.621 59.6253 181.691 59.6245L182.323 59.6165Z" fill="#1C0E18"/>
<path d="M230.035 99.5126C239.203 131.833 232.907 167.729 212.603 194.569C198.443 212.558 180.392 225.043 158.451 232.025C158.077 232.142 157.272 232.169 156.035 232.105L155.363 213.065C155.357 212.91 155.299 212.883 155.187 212.985C154.843 213.281 154.843 230.353 154.747 232.377C154.451 233.977 135.155 235.969 132.859 236.137C119.781 236.873 107.027 235.246 94.5947 231.257C94.3653 231.182 94.2507 231.022 94.2507 230.777V212.833C94.2507 212.587 94.128 212.454 93.8827 212.433C93.7973 212.427 93.7147 212.425 93.6347 212.425C93.5067 212.425 93.4373 212.489 93.4267 212.617C92.9893 217.689 92.808 222.771 92.8827 227.865C92.888 228.091 92.8114 228.313 92.6667 228.489C92.224 229.027 92.1787 229.523 92.5307 229.977C92.8987 230.451 92.8134 230.59 92.2747 230.393L86.5547 228.329C87.216 216.11 91.6214 205.39 99.7707 196.169C101.243 194.505 102.869 193.393 104.651 192.833C106.043 201.489 110.467 206.073 118.259 209.601C119.213 210.033 120.92 210.179 123.379 210.041C129.955 209.006 135.197 205.078 139.107 198.257L141.035 192.041C155.811 195.001 160.379 216.881 162.115 229.177C162.179 229.619 162.389 229.827 162.747 229.801C162.949 229.785 163.04 229.675 163.019 229.473C162.064 219.563 160.069 210.955 157.035 203.649C154.256 196.961 148.904 192.819 140.979 191.225L130.411 189.313C130.155 189.265 129.992 189.115 129.923 188.865C129.645 187.825 129.736 186.878 130.195 186.025C130.264 185.894 130.364 185.782 130.487 185.698C130.609 185.615 130.751 185.562 130.899 185.545C138.973 184.691 146.667 182.486 153.979 178.929C165.669 172.918 174.133 163.622 179.371 151.041C179.402 150.962 179.46 150.897 179.535 150.856C179.609 150.815 179.695 150.801 179.779 150.817C182.76 151.329 185.547 151.049 188.139 149.977C198.899 145.225 208.035 126.025 191.083 121.865C192.469 118.921 193.112 116.545 193.011 114.737C195.197 109.553 195.891 103.966 195.091 97.9766C194.675 94.878 193.957 92.2673 192.939 90.1446C192.832 89.9153 192.869 89.71 193.051 89.5286C195.963 86.6246 196.787 79.8406 196.011 76.6726C195.205 73.4033 192.971 71.1393 189.307 69.8806C191.067 68.8566 185.331 67.9846 184.899 67.8006C184.788 67.752 184.692 67.6731 184.623 67.5729C184.554 67.4726 184.514 67.3549 184.507 67.2326C184.427 65.2113 184.229 63.2113 183.915 61.2326C183.667 59.6566 182.427 58.0646 182.667 56.0006C182.699 55.7286 182.848 55.5579 183.115 55.4886C192.363 53.1606 213.547 77.4646 218.795 83.6886C221.797 87.2513 224.373 91.4673 226.523 96.3366C226.923 97.238 227.349 97.9206 227.803 98.3846C228.624 99.238 229.368 99.6139 230.035 99.5126ZM96.8187 201.385C93.2987 203.841 93.2507 208.625 96.8827 211.321C96.989 211.4 97.1126 211.453 97.2433 211.475C97.374 211.497 97.5081 211.488 97.6347 211.449C99.6293 210.83 101.144 209.611 102.179 207.793C102.307 207.579 102.347 207.35 102.299 207.105C101.755 204.345 99.6507 202.665 97.3547 201.361C97.1734 201.254 96.9947 201.262 96.8187 201.385Z" fill="#67AA79"/>
<path d="M72.0989 60.1207C71.6669 62.1367 71.7363 63.6354 72.3069 64.6167C72.0136 65.2514 71.9309 66.3794 72.0589 68.0007C63.2323 67.4194 58.6269 71.5447 58.2429 80.3767C58.1523 82.6967 58.6536 84.9154 59.7469 87.0327L59.1149 87.2007C58.9069 87.254 58.7336 87.198 58.5949 87.0327L56.4509 84.4807C56.3515 84.3646 56.2111 84.2915 56.059 84.2766C55.9069 84.2617 55.755 84.3061 55.6349 84.4007C54.8456 85.0194 54.3043 85.8167 54.0109 86.7927C53.9983 86.8345 53.9711 86.8704 53.9344 86.894C53.8977 86.9176 53.8538 86.9274 53.8105 86.9217C53.7673 86.9159 53.7274 86.8949 53.6982 86.8625C53.669 86.8301 53.6522 86.7883 53.6509 86.7447V86.4087C53.6534 86.3617 53.6385 86.3154 53.6091 86.2787C53.5797 86.2419 53.5378 86.2173 53.4914 86.2094C53.445 86.2015 53.3973 86.2109 53.3574 86.2359C53.3175 86.2608 53.2882 86.2995 53.275 86.3447C52.7256 87.934 51.6723 89.03 50.1149 89.6327C50.0551 89.6575 49.989 89.663 49.9259 89.6486C49.8627 89.6341 49.8057 89.6004 49.7626 89.552C49.7195 89.5036 49.6925 89.4431 49.6854 89.3787C49.6783 89.3143 49.6914 89.2493 49.7229 89.1927L52.3069 84.4647C52.3429 84.3984 52.3566 84.3224 52.346 84.2478C52.3355 84.1731 52.3013 84.1039 52.2485 84.0501C52.1956 83.9964 52.1269 83.961 52.0525 83.9492C51.978 83.9375 51.9018 83.9499 51.8349 83.9847L37.0029 91.5607C36.913 91.6067 36.8121 91.6267 36.7115 91.6186C36.6108 91.6105 36.5144 91.5746 36.4331 91.5148C36.3517 91.455 36.2885 91.3738 36.2507 91.2801C36.2129 91.1865 36.2019 91.0842 36.2189 90.9847C36.3149 90.4354 36.3016 89.846 36.1789 89.2167C36.1705 89.1752 36.1537 89.1358 36.1296 89.101C36.1054 89.0661 36.0745 89.0366 36.0385 89.0142C36.0026 88.9917 35.9624 88.9768 35.9206 88.9704C35.8787 88.9639 35.8359 88.9661 35.7949 88.9767C34.2323 89.3607 32.6856 89.3047 31.1549 88.8087C30.8776 88.7234 30.6616 88.8007 30.5069 89.0407C29.6909 90.2994 29.2589 91.6647 29.2109 93.1367C29.2061 93.2808 29.1504 93.4236 29.0545 93.5384C28.9586 93.6533 28.829 93.7323 28.6898 93.7607C28.5506 93.7892 28.4114 93.765 28.2983 93.6929C28.1851 93.6207 28.1057 93.5055 28.075 93.3687C28.0643 93.3207 27.9016 93.206 27.5869 93.0247C30.8989 83.7287 35.2669 75.062 40.6909 67.0247C41.4856 67.4407 41.7789 67.918 41.5709 68.4567C41.3949 68.926 41.4883 69.0487 41.8509 68.8247L43.3549 67.8887C43.5896 67.7447 43.8216 67.7447 44.0509 67.8887L46.9709 69.7367C47.2109 69.8914 47.4696 69.9367 47.7469 69.8727C48.7763 69.6434 49.8029 69.4167 50.8269 69.1927C53.1229 68.6887 55.1309 67.3767 57.4109 66.5847C61.9869 64.9847 66.4029 62.0327 70.3949 59.3127C70.7469 59.078 70.907 59.1714 70.875 59.5927L70.8269 60.1767C70.8109 60.438 70.9309 60.5927 71.1869 60.6407C71.5229 60.71 71.8269 60.5367 72.0989 60.1207Z" fill="#BBDAB0"/>
<path d="M72.0592 68.0006C72.1872 67.766 72.3125 67.926 72.4352 68.4806C72.4583 68.588 72.4583 68.699 72.4353 68.8064C72.4123 68.9137 72.3668 69.015 72.3018 69.1035C72.2368 69.1919 72.1537 69.2656 72.0581 69.3196C71.9625 69.3736 71.8565 69.4066 71.7472 69.4166C66.7872 69.8886 63.1392 69.6806 61.6752 75.4406C60.4832 80.1126 61.7312 83.2326 62.4672 87.3766C62.4942 87.5302 62.4656 87.6884 62.3865 87.8228C62.3075 87.9572 62.1831 88.0591 62.0358 88.1101C61.8885 88.1611 61.7278 88.158 61.5825 88.1013C61.4373 88.0446 61.3169 87.938 61.2432 87.8006L59.3312 84.2166C59.2215 84.0024 59.1743 83.7612 59.1952 83.5206C59.3072 82.2353 58.9898 81.1873 58.2432 80.3766C58.6272 71.5446 63.2325 67.4193 72.0592 68.0006Z" fill="#523D38"/>
<path d="M183.17 68.7688L189.306 69.8808C192.97 71.1395 195.205 73.4035 196.01 76.6728C196.786 79.8408 195.962 86.6248 193.05 89.5288C192.869 89.7101 192.832 89.9155 192.938 90.1448C193.957 92.2675 194.674 94.8781 195.09 97.9768C195.89 103.966 195.197 109.553 193.01 114.737C194.157 105.985 193.834 97.9981 192.042 90.7768C191.77 89.0061 192.042 88.3181 192.858 88.7128C194.677 85.9715 195.392 82.6141 195.002 78.6408C194.522 73.6701 192.298 71.0835 188.33 70.8808C187.05 70.7688 185.773 70.6275 184.498 70.4568C183.754 70.3528 180.722 68.9608 183.17 68.7688Z" fill="#2D362F"/>
<path d="M192.859 88.7124C194.083 82.0164 194.923 74.7524 188.331 70.8804C192.299 71.083 194.523 73.6697 195.003 78.6404C195.392 82.6137 194.678 85.971 192.859 88.7124Z" fill="#645A4F"/>
<path d="M192.043 90.7766C193.835 97.9979 194.157 105.985 193.011 114.737C193.112 116.545 192.469 118.921 191.083 121.865C191.403 121.737 191.379 121.921 191.011 122.417C186.531 124.553 185.147 128.409 183.091 132.353C182.813 132.891 182.672 132.859 182.667 132.257C182.579 117.465 180.427 102.601 178.067 88.0246C178.052 87.9263 178.003 87.8363 177.928 87.7705C177.853 87.7047 177.758 87.6672 177.659 87.6646L111.643 85.7526C116.48 84.4513 121.403 84.2086 126.411 85.0246C126.677 85.0673 126.931 85.0273 127.171 84.9046C127.555 84.7073 127.915 84.6193 128.251 84.6406C136.72 85.0619 144.368 84.9686 151.195 84.3606C154.275 84.0886 157.003 84.6646 159.747 84.3046C164.109 83.7286 168.491 83.6539 172.891 84.0806C173.147 84.1073 173.357 84.0193 173.523 83.8166C174.035 83.1766 179.747 80.8726 180.779 80.5206C181.291 80.3499 181.619 80.0433 181.763 79.6006C181.796 79.4932 181.865 79.4001 181.958 79.3363C182.051 79.2725 182.162 79.2416 182.275 79.2486C184.536 79.3873 186.491 78.6593 188.139 77.0646C188.272 76.9378 188.437 76.8502 188.617 76.8113C188.796 76.7723 188.983 76.7837 189.157 76.844C189.33 76.9044 189.484 77.0114 189.601 77.1533C189.717 77.2953 189.793 77.4666 189.819 77.6486L190.547 83.0566C190.579 83.2806 190.685 83.4566 190.867 83.5846C191.187 83.8086 191.331 84.0086 191.291 84.4246C191.104 86.5419 191.355 88.6593 192.043 90.7766Z" fill="#0E040B"/>
<path d="M59.7472 87.0326C61.2672 90.2966 59.2992 95.3846 59.0512 99.1286L59.0432 100.329C59.0432 100.387 59.0166 100.403 58.9632 100.377L58.6752 100.217C58.5472 100.153 58.4379 100.177 58.3472 100.289C57.3499 101.547 56.8139 102.993 56.7392 104.625C56.6112 107.425 52.0432 112.617 50.1232 114.833C49.9366 115.046 49.7499 115.049 49.5632 114.841C47.7712 112.841 46.6619 110.769 46.2352 108.625C45.8459 106.673 45.4352 104.726 45.0032 102.785C44.9552 102.582 44.8726 102.395 44.7552 102.225C44.3926 101.681 44.1179 101.55 43.9312 101.833C43.8032 102.03 43.6245 102.097 43.3952 102.033C41.0432 101.369 39.4752 103.817 37.2512 105.065C36.4672 105.507 35.6326 106.145 34.7472 106.977C32.4512 109.153 29.6992 109.777 27.4032 111.689C26.1126 112.755 24.7712 113.771 23.3792 114.737C23.1179 114.918 22.9446 114.857 22.8592 114.553L22.6992 113.961C23.6326 106.878 25.2619 99.8993 27.5872 93.0246C27.9019 93.2059 28.0646 93.3206 28.0752 93.3686C28.106 93.5054 28.1854 93.6206 28.2986 93.6928C28.4117 93.7649 28.5509 93.7891 28.6901 93.7606C28.8293 93.7322 28.9589 93.6532 29.0548 93.5384C29.1507 93.4235 29.2063 93.2807 29.2112 93.1366C29.2592 91.6646 29.6912 90.2993 30.5072 89.0406C30.6619 88.8006 30.8779 88.7233 31.1552 88.8086C32.6859 89.3046 34.2325 89.3606 35.7952 88.9766C35.8362 88.966 35.879 88.9638 35.9208 88.9703C35.9627 88.9767 36.0029 88.9916 36.0388 89.0141C36.0747 89.0365 36.1057 89.0661 36.1299 89.1009C36.154 89.1357 36.1708 89.1751 36.1792 89.2166C36.3019 89.8459 36.3152 90.4353 36.2192 90.9846C36.2022 91.0841 36.2132 91.1864 36.251 91.2801C36.2888 91.3737 36.352 91.4549 36.4333 91.5147C36.5147 91.5745 36.6111 91.6104 36.7118 91.6186C36.8124 91.6267 36.9133 91.6066 37.0032 91.5606L51.8352 83.9846C51.9021 83.9498 51.9783 83.9374 52.0528 83.9491C52.1272 83.9609 52.1959 83.9963 52.2488 84.05C52.3016 84.1038 52.3358 84.173 52.3463 84.2477C52.3569 84.3223 52.3432 84.3983 52.3072 84.4646L49.7232 89.1926C49.6917 89.2492 49.6786 89.3142 49.6857 89.3786C49.6928 89.443 49.7198 89.5035 49.7629 89.5519C49.806 89.6003 49.863 89.634 49.9262 89.6485C49.9893 89.6629 50.0554 89.6574 50.1152 89.6326C51.6726 89.03 52.7259 87.9339 53.2752 86.3446C53.2885 86.2994 53.3178 86.2607 53.3577 86.2358C53.3976 86.2108 53.4453 86.2014 53.4917 86.2093C53.5381 86.2172 53.58 86.2418 53.6094 86.2786C53.6388 86.3153 53.6537 86.3616 53.6512 86.4086V86.7446C53.6525 86.7882 53.6692 86.83 53.6985 86.8624C53.7277 86.8948 53.7676 86.9158 53.8108 86.9216C53.8541 86.9274 53.898 86.9175 53.9347 86.8939C53.9714 86.8703 53.9986 86.8344 54.0112 86.7926C54.3046 85.8166 54.8459 85.0193 55.6352 84.4006C55.7552 84.306 55.9072 84.2616 56.0593 84.2765C56.2114 84.2914 56.3518 84.3645 56.4512 84.4806L58.5952 87.0326C58.7339 87.198 58.9072 87.2539 59.1152 87.2006L59.7472 87.0326Z" fill="#9CC49A"/>
<path d="M111.643 85.7526L177.659 87.6646C177.759 87.6672 177.854 87.7047 177.928 87.7706C178.003 87.8364 178.052 87.9263 178.067 88.0246C180.427 102.601 182.579 117.465 182.667 132.257C182.672 132.859 182.814 132.891 183.091 132.353C185.147 128.409 186.531 124.553 191.011 122.417L191.843 123.273C192.035 123.47 192.264 123.593 192.531 123.641C197.555 124.529 199.027 131.465 198.139 135.497C197.675 137.598 196.742 139.942 195.339 142.529C193.744 145.473 191.344 147.955 188.139 149.977C185.547 151.049 182.76 151.329 179.779 150.817C179.696 150.801 179.609 150.815 179.535 150.856C179.461 150.897 179.403 150.962 179.371 151.041C174.134 163.622 165.67 172.918 153.979 178.929C153.792 177.398 154.371 176.366 155.715 175.833C155.833 175.787 155.932 175.703 155.996 175.594C156.059 175.485 156.085 175.358 156.067 175.233C155.675 172.529 157.259 172.361 158.651 170.881C162.038 167.275 164.115 162.937 164.883 157.865C165.763 157.363 166.872 156.603 168.211 155.585C173.715 151.409 162.667 147.825 160.491 147.297C159.984 146.422 160.219 145.641 161.195 144.953C165.115 144.558 167.387 143.094 168.011 140.561C172.651 128.833 158.355 115.529 147.067 122.345L146.691 119.273C151.955 116.905 157.187 116.529 162.387 118.145C164.587 118.825 171.387 123.769 173.211 121.577C173.503 121.227 173.672 120.791 173.693 120.336C173.713 119.88 173.583 119.431 173.323 119.057C167.686 110.881 160.051 107.713 150.419 109.553L149.067 109.177C148.811 109.105 148.595 108.938 148.467 108.713C148.003 107.913 147.32 107.382 146.419 107.121C146.387 107.115 146.36 107.123 146.339 107.145C146.28 107.193 146.24 107.257 146.219 107.337C146.192 107.459 146.126 107.486 146.019 107.417C142.723 105.057 139.171 103.001 134.923 102.953C126.227 102.865 119.771 102.649 112.155 104.969C110.211 105.561 108.139 106.929 105.859 107.665C105.358 107.825 104.992 108.174 104.763 108.713C104.651 108.974 104.454 109.091 104.171 109.065L100.355 108.713C90.0404 105.822 81.9844 108.465 76.1871 116.641C75.2271 117.153 74.8564 117.857 75.0751 118.753C75.1284 118.982 75.0804 119.187 74.9311 119.369L72.4831 122.313C72.3124 122.515 72.1844 122.491 72.0991 122.241C71.6404 120.961 70.8564 119.921 69.7471 119.121C71.8964 108.726 74.9284 97.678 78.8431 85.9766C79.2991 84.5926 80.0911 85.0086 81.2591 85.0406C91.5577 85.3553 101.686 85.5926 111.643 85.7526ZM192.267 136.057C195.635 128.913 186.803 126.769 184.563 134.865C183.795 137.659 182.963 140.457 182.067 143.257C182.046 143.318 182.044 143.384 182.06 143.447C182.077 143.51 182.112 143.566 182.161 143.609C182.21 143.652 182.27 143.68 182.335 143.688C182.399 143.696 182.465 143.685 182.523 143.657C183.259 143.31 183.904 142.822 184.459 142.193C184.635 141.99 184.848 141.846 185.099 141.761C188.651 140.555 191.04 138.654 192.267 136.057Z" fill="#FB9E50"/>
<path d="M59.0503 99.1284C59.6637 105.779 61.0663 112.723 63.2583 119.96C62.741 119.806 62.3757 119.824 62.1623 120.016C55.1943 115.568 50.5463 125.44 51.1063 130.92C51.7037 136.792 54.5943 141.542 59.7783 145.168C58.7783 148.296 66.2663 153.776 61.1863 156.272C60.877 156.427 60.6663 156.339 60.5543 156.008C60.373 155.454 60.4263 154.92 60.7143 154.408C60.7904 154.27 60.8149 154.109 60.7836 153.953C60.7522 153.798 60.667 153.659 60.5433 153.561C60.4197 153.464 60.2657 153.414 60.1092 153.421C59.9528 153.428 59.8042 153.492 59.6903 153.6C58.0263 155.152 56.125 156.23 53.9863 156.832C53.7623 156.896 53.613 157.035 53.5383 157.248L52.7623 159.408C52.7197 159.531 52.6413 159.639 52.5373 159.717C52.4333 159.796 52.3083 159.841 52.1783 159.848C50.7063 159.928 46.0983 159.856 45.4263 161.2C45.2983 161.451 45.101 161.619 44.8343 161.704C43.1117 162.227 42.2423 163.408 42.2263 165.248C42.2236 165.392 42.1856 165.531 42.1158 165.656C42.0459 165.78 41.9465 165.885 41.8263 165.96C40.9783 166.494 40.1143 166.998 39.2343 167.472C36.1223 169.152 36.5783 167.632 35.5463 171.536C35.4686 171.821 35.2928 172.067 35.0503 172.232L33.1224 173.512C32.893 173.667 32.6503 173.686 32.3943 173.568L30.2184 172.552C22.421 153.976 19.9143 134.446 22.6983 113.96L22.8583 114.552C22.9437 114.856 23.117 114.918 23.3783 114.736C24.7703 113.771 26.1117 112.755 27.4023 111.688C29.6983 109.776 32.4503 109.152 34.7463 106.976C35.6317 106.144 36.4663 105.507 37.2503 105.064C39.4743 103.816 41.0423 101.368 43.3943 102.032C43.6237 102.096 43.8023 102.03 43.9303 101.832C44.117 101.55 44.3917 101.68 44.7543 102.224C44.8717 102.395 44.9543 102.582 45.0023 102.784C45.4343 104.726 45.845 106.672 46.2343 108.624C46.661 110.768 47.7703 112.84 49.5623 114.84C49.749 115.048 49.9357 115.046 50.1224 114.832C52.0424 112.616 56.6103 107.424 56.7383 104.624C56.813 102.992 57.349 101.547 58.3463 100.288C58.437 100.176 58.5464 100.152 58.6744 100.216L58.9623 100.376C59.0157 100.403 59.0423 100.387 59.0423 100.328L59.0503 99.1284Z" fill="#83B890"/>
<path d="M150.419 109.552C146.568 110.512 143.784 112.406 142.067 115.232C141.163 116.712 140.939 118.832 142.795 119.584C142.203 120.07 141.686 120.747 141.243 121.616C140.163 123.704 135.179 122.512 132.867 123.496C132.626 123.601 132.364 123.64 132.107 123.608C123.707 122.712 117.587 126.016 110.123 129.112C109.083 129.544 107.923 130.462 106.643 131.864C106.339 130.579 105.995 129.803 105.611 129.536C105.718 128.411 105.342 127.224 104.483 125.976C99.1629 118.208 90.3789 117.432 83.7069 123.616C80.0749 126.968 76.5229 133.792 79.1469 138.752C79.6216 139.456 79.8936 140.584 79.9629 142.136C79.3336 142.35 79.2109 143.137 79.5949 144.497C79.7034 144.883 79.658 145.296 79.4683 145.648C79.2787 146.001 78.9597 146.265 78.5789 146.384C76.1095 147.163 74.0243 148.534 72.3229 150.497C72.0829 150.763 72.0616 151.048 72.2589 151.352L74.1149 154.168C74.2909 154.435 74.5202 154.499 74.8029 154.36C75.8429 153.854 76.7816 154.03 77.6189 154.888C79.3842 156.686 81.4109 158.112 83.6989 159.168C84.3016 159.451 84.9229 159.787 85.5629 160.176C87.3149 161.264 88.4829 161.384 90.0509 162.856C93.2669 165.864 98.2829 170.312 102.907 171.393C103.029 171.422 103.157 171.42 103.279 171.386C103.4 171.353 103.512 171.289 103.603 171.2C104.227 170.587 104.939 170.355 105.739 170.504C105.984 170.552 106.227 170.544 106.467 170.48L108.011 170.064C109.211 174.646 111.632 178.675 115.275 182.152C121.238 184.899 127.275 184.798 133.387 181.849C135.072 182.099 136.79 181.643 138.539 180.48C139.526 179.83 139.888 178.875 139.627 177.616C139.568 177.328 139.672 177.128 139.939 177.016C141.955 176.174 143.574 174.856 144.795 173.064C144.843 172.995 144.907 172.974 144.987 173C145.094 173.038 145.184 173.072 145.259 173.104C145.366 173.152 145.456 173.128 145.531 173.032C149.995 167.192 152.267 162.464 159.691 159.808C159.756 159.781 159.81 159.731 159.843 159.668C159.875 159.605 159.885 159.533 159.87 159.463C159.855 159.394 159.816 159.332 159.76 159.288C159.703 159.245 159.634 159.222 159.563 159.224C159.147 159.262 158.995 159.169 159.107 158.944L164.883 157.864C164.115 162.936 162.038 167.275 158.651 170.88C157.259 172.36 155.675 172.528 156.067 175.232C156.084 175.358 156.059 175.485 155.995 175.594C155.931 175.703 155.833 175.787 155.715 175.832C154.371 176.366 153.792 177.398 153.979 178.928C146.667 182.486 138.974 184.691 130.899 185.545C130.751 185.562 130.61 185.615 130.487 185.698C130.364 185.782 130.264 185.894 130.195 186.024C129.736 186.878 129.646 187.824 129.923 188.864C129.992 189.115 130.155 189.264 130.411 189.312L140.979 191.224C141.086 191.656 141.104 191.928 141.035 192.04L139.107 198.256C137.451 195.456 133.371 195.672 130.795 193.472C130.566 193.275 130.451 193.328 130.451 193.632V194.2C130.451 194.424 130.347 194.494 130.139 194.408C127.792 193.48 125.374 193.232 122.883 193.664C122.859 193.667 122.834 193.66 122.815 193.645C122.796 193.63 122.783 193.609 122.779 193.584L122.739 193.384C122.707 193.192 122.595 193.088 122.403 193.072C117.395 192.704 116.027 197.472 110.779 197.232C110.571 197.222 110.379 197.161 110.203 197.049L108.747 196.104C108.486 195.934 108.302 195.995 108.195 196.288C107.88 197.163 107.99 197.968 108.523 198.704C108.72 198.971 108.654 199.131 108.323 199.184L107.459 199.32C106.179 196.851 105.814 194.48 106.363 192.208C106.39 192.112 106.355 192.051 106.259 192.024C106.19 192.008 106.12 192 106.051 192C106.238 191.787 106.299 191.502 106.235 191.145C109.499 190.035 112.942 189.502 116.563 189.545C116.878 189.55 117.03 189.392 117.019 189.072L116.915 186.624C116.904 186.352 116.771 186.174 116.515 186.088C112.126 184.622 107.64 183.625 103.059 183.097C102.798 183.07 102.574 182.966 102.387 182.784C101.563 182.016 100.299 182.136 99.4109 181.768C95.5016 180.136 92.4509 178.747 90.2589 177.6C81.6269 173.08 72.9149 159.888 70.0189 150.536C69.5389 148.992 68.5549 148.368 67.3229 147.512C67.0989 147.358 66.8535 147.275 66.5869 147.264C64.4322 147.163 62.4509 146.651 60.6429 145.728C60.7336 145.526 60.7736 145.336 60.7629 145.16C60.7416 144.771 60.7069 144.555 60.6589 144.512C53.1469 138.24 50.2749 126.592 59.9069 120.576C60.1096 120.448 60.3335 120.398 60.5789 120.424C61.2509 120.51 61.7789 120.374 62.1629 120.016C62.3762 119.824 62.7416 119.806 63.2589 119.96C64.9336 121.864 66.0723 123.952 66.6749 126.224C67.3576 128.816 67.8109 130.625 68.0349 131.649C68.0469 131.688 68.0724 131.722 68.1069 131.744C68.1413 131.767 68.1827 131.777 68.2236 131.772C68.2645 131.767 68.3025 131.748 68.3309 131.718C68.3593 131.688 68.3762 131.65 68.3789 131.608C68.4375 127.47 68.8936 123.307 69.7469 119.12C70.8562 119.92 71.6402 120.96 72.0989 122.24C72.1842 122.491 72.3122 122.515 72.4829 122.312L74.9309 119.368C75.0802 119.187 75.1283 118.982 75.0749 118.752C74.8563 117.856 75.2269 117.152 76.1869 116.64C75.9949 119.12 77.5709 120.192 79.4189 119.208C89.5949 113.776 94.3709 115.616 104.099 118.848C109.099 120.504 108.755 115.08 106.267 112.808C104.582 111.267 102.611 109.902 100.355 108.712L104.171 109.064C104.454 109.091 104.651 108.974 104.763 108.712C104.992 108.174 105.358 107.824 105.859 107.664C108.139 106.928 110.211 105.56 112.155 104.968C119.771 102.648 126.227 102.864 134.923 102.952C139.171 103 142.723 105.056 146.019 107.416C146.126 107.486 146.192 107.459 146.219 107.336C146.24 107.256 146.28 107.192 146.339 107.144C146.36 107.123 146.387 107.115 146.419 107.12C147.32 107.382 148.003 107.912 148.467 108.712C148.595 108.938 148.81 109.104 149.067 109.176L150.419 109.552ZM58.7069 129.728C58.3229 135.784 62.4429 138.48 67.4909 140.472C67.7576 140.579 67.8509 140.494 67.7709 140.216C66.2029 134.968 64.8269 131.182 63.6429 128.856C62.5789 126.776 58.9149 126.584 58.7069 129.728Z" fill="#FCA85B"/>
<path d="M100.355 108.713C102.611 109.902 104.581 111.267 106.267 112.809C108.755 115.081 109.099 120.505 104.099 118.849C94.3708 115.617 89.5948 113.777 79.4188 119.209C77.5708 120.193 75.9948 119.121 76.1868 116.641C81.9841 108.465 90.0401 105.822 100.355 108.713Z" fill="#070608"/>
<path d="M146.69 119.273L142.794 119.585C140.938 118.833 141.162 116.713 142.066 115.233C143.784 112.406 146.568 110.513 150.418 109.553C160.05 107.713 167.685 110.881 173.322 119.057C173.582 119.431 173.712 119.88 173.692 120.336C173.672 120.791 173.503 121.227 173.21 121.577C171.386 123.769 164.586 118.825 162.386 118.145C157.186 116.529 151.954 116.905 146.69 119.273Z" fill="#070608"/>
<path d="M62.1622 120.017C61.7782 120.374 61.2501 120.51 60.5781 120.425C60.3328 120.398 60.1088 120.449 59.9062 120.577C50.2742 126.593 53.1462 138.241 60.6582 144.513C60.7062 144.555 60.7408 144.771 60.7622 145.161C60.7728 145.337 60.7328 145.526 60.6422 145.729C60.1835 145.547 59.8955 145.361 59.7781 145.169C54.5941 141.542 51.7035 136.793 51.1062 130.921C50.5462 125.441 55.1942 115.569 62.1622 120.017Z" fill="#FCE8A3"/>
<path d="M146.691 119.273L147.067 122.345C143.845 124.318 141.784 127.233 140.883 131.089C139.752 133.75 139.688 136.707 140.691 139.961C141.971 144.121 144.859 145.833 149.067 145.657C153.141 145.486 157.184 145.251 161.195 144.953C160.219 145.641 159.984 146.422 160.491 147.297C154.224 145.819 149.427 147.411 146.099 152.073C145.879 152.376 145.769 152.745 145.785 153.121C145.8 153.496 145.942 153.857 146.187 154.145C149.312 157.809 153.619 159.409 159.107 158.945C158.995 159.169 159.147 159.262 159.563 159.225C159.634 159.222 159.703 159.245 159.759 159.289C159.815 159.332 159.854 159.394 159.869 159.463C159.885 159.533 159.875 159.605 159.842 159.668C159.81 159.732 159.756 159.781 159.691 159.809C152.267 162.465 149.995 167.193 145.531 173.033C145.456 173.129 145.365 173.153 145.259 173.105C145.184 173.073 145.093 173.038 144.987 173.001C144.907 172.974 144.843 172.995 144.795 173.065C143.573 174.857 141.955 176.174 139.939 177.017C139.672 177.129 139.568 177.329 139.627 177.617C139.888 178.875 139.525 179.83 138.539 180.481C136.789 181.643 135.072 182.099 133.387 181.849L137.339 177.985C140.805 173.222 142.179 167.819 141.459 161.777C141.416 161.43 141.277 161.387 141.043 161.649C139.243 163.625 136.155 163.713 133.451 163.737C126.907 163.806 120.376 163.702 113.859 163.425C111.544 163.323 109.091 162.401 106.499 160.657C106.28 160.507 106.195 160.563 106.243 160.825L108.011 170.065L106.467 170.481C106.227 170.545 105.984 170.553 105.739 170.505C104.939 170.355 104.227 170.587 103.603 171.201C103.512 171.289 103.4 171.353 103.278 171.387C103.157 171.42 103.029 171.422 102.907 171.393C98.2826 170.313 93.2665 165.865 90.0505 162.857C88.4825 161.385 87.3146 161.265 85.5626 160.177C84.9226 159.787 84.3012 159.451 83.6985 159.169C81.4105 158.113 79.3839 156.686 77.6186 154.889C76.7812 154.03 75.8425 153.854 74.8025 154.361C74.5199 154.499 74.2906 154.435 74.1146 154.169L72.2586 151.353C72.0612 151.049 72.0826 150.763 72.3226 150.497C74.0239 148.534 76.1092 147.163 78.5785 146.385C78.9593 146.265 79.2783 146.001 79.468 145.649C79.6576 145.296 79.703 144.883 79.5945 144.497C79.2105 143.137 79.3332 142.35 79.9626 142.137C85.7759 144.537 92.0505 145.43 98.7865 144.817C102.675 144.465 105.093 142.465 106.043 138.817C106.661 136.427 106.861 134.11 106.643 131.865C107.923 130.462 109.083 129.545 110.123 129.113C117.587 126.017 123.707 122.713 132.107 123.609C132.363 123.64 132.626 123.601 132.867 123.497C135.179 122.513 140.163 123.705 141.243 121.617C141.685 120.747 142.203 120.07 142.795 119.585L146.691 119.273ZM99.7226 152.486C99.7212 151.7 99.4427 150.922 98.9031 150.197C98.3635 149.472 97.5733 148.814 96.5776 148.26C95.582 147.706 94.4003 147.267 93.1002 146.969C91.8 146.671 90.4068 146.518 89.0001 146.521C87.5933 146.523 86.2007 146.68 84.9016 146.983C83.6025 147.286 82.4224 147.729 81.4286 148.287C80.4349 148.844 79.647 149.505 79.1099 150.232C78.5729 150.959 78.2972 151.738 78.2985 152.523C78.2999 153.309 78.5784 154.087 79.118 154.812C79.6576 155.537 80.4477 156.195 81.4434 156.749C82.4391 157.303 83.6207 157.742 84.9209 158.04C86.2211 158.339 87.6143 158.491 89.021 158.489C90.4277 158.486 91.8204 158.329 93.1195 158.026C94.4187 157.723 95.5988 157.28 96.5925 156.723C97.5862 156.165 98.3741 155.504 98.9111 154.777C99.4482 154.05 99.7239 153.272 99.7226 152.486ZM118.107 147.625C116.917 147.859 116.459 148.843 116.731 150.577C116.773 150.843 116.931 150.987 117.203 151.009C119.131 151.145 120.347 151.457 120.139 148.961C122.011 150.838 121.123 151.987 117.475 152.409C117.123 152.451 116.949 152.649 116.955 153.001L116.971 154.953C116.971 155.294 117.131 155.518 117.451 155.625C120.251 156.579 122.523 155.841 124.267 153.409C127.171 149.369 122.011 145.353 118.107 147.625Z" fill="#FCB468"/>
<path d="M105.611 129.537C99.4426 125.961 94.8906 120.329 87.4266 124.769C82.1626 127.899 79.4026 132.561 79.1466 138.753C76.5226 133.793 80.0746 126.969 83.7066 123.617C90.3786 117.433 99.1626 118.209 104.483 125.977C105.341 127.225 105.717 128.411 105.611 129.537Z" fill="#070608"/>
<path d="M168.011 140.561C167.702 132.683 164.232 127.473 157.603 124.929C151.811 122.705 145.259 126.937 140.883 131.089C141.784 127.233 143.846 124.318 147.067 122.345C158.355 115.529 172.651 128.833 168.011 140.561Z" fill="#070608"/>
<path d="M191.083 121.864C208.035 126.024 198.899 145.224 188.139 149.976C191.344 147.955 193.744 145.472 195.339 142.528C196.741 139.942 197.675 137.598 198.139 135.496C199.027 131.464 197.555 124.528 192.531 123.64C192.264 123.592 192.035 123.47 191.843 123.272L191.011 122.416C191.379 121.92 191.403 121.736 191.083 121.864Z" fill="#FCE8A3"/>
<path d="M105.61 129.537C105.994 129.803 106.338 130.579 106.642 131.865C106.861 134.11 106.661 136.427 106.042 138.817C105.093 142.465 102.674 144.465 98.7865 144.817C92.0505 145.43 85.7758 144.537 79.9625 142.137C79.8932 140.585 79.6212 139.457 79.1465 138.753C79.4025 132.561 82.1625 127.899 87.4265 124.769C94.8905 120.329 99.4425 125.961 105.61 129.537ZM96.2295 143.337C97.9355 143.562 99.686 142.909 101.096 141.523C102.506 140.136 103.459 138.129 103.747 135.943C104.035 133.758 103.633 131.573 102.63 129.868C101.627 128.164 100.105 127.08 98.3995 126.856C96.6935 126.631 94.943 127.284 93.5332 128.671C92.1234 130.057 91.1698 132.064 90.882 134.25C90.5943 136.435 90.996 138.621 91.9989 140.325C93.0017 142.029 94.5235 143.113 96.2295 143.337Z" fill="#EBE1DA"/>
<path d="M168.011 140.561C167.387 143.094 165.115 144.558 161.195 144.952C157.185 145.251 153.142 145.486 149.067 145.656C144.859 145.832 141.971 144.121 140.691 139.961C139.689 136.707 139.753 133.75 140.883 131.089C145.259 126.937 151.811 122.705 157.603 124.929C164.233 127.473 167.702 132.683 168.011 140.561ZM147.667 144.033C153.739 145.281 156.131 137.064 154.963 132.4C153.667 127.184 146.731 125.961 144.251 130.217C141.827 134.385 141.147 142.697 147.667 144.033Z" fill="#EBE1DA"/>
<path d="M96.2294 143.338C94.5234 143.113 93.0016 142.029 91.9987 140.325C90.9959 138.621 90.5942 136.436 90.8819 134.25C91.1696 132.064 92.1233 130.057 93.5331 128.671C94.9429 127.284 96.6933 126.631 98.3993 126.856C100.105 127.081 101.627 128.164 102.63 129.868C103.633 131.573 104.035 133.758 103.747 135.944C103.459 138.129 102.505 140.136 101.096 141.523C99.6858 142.909 97.9354 143.562 96.2294 143.338ZM96.2423 133.249L97.6184 133.721C97.7874 133.78 97.9681 133.797 98.1453 133.771C98.3225 133.745 98.491 133.676 98.6367 133.571C98.7824 133.466 98.9011 133.328 98.9828 133.167C99.0645 133.007 99.1069 132.829 99.1064 132.649C99.101 131.411 98.6103 130.59 97.6343 130.185C97.3517 130.067 97.0797 130.086 96.8184 130.241C95.8797 130.79 95.509 131.585 95.7064 132.625C95.7331 132.766 95.7967 132.898 95.8907 133.007C95.9847 133.117 96.1059 133.2 96.2423 133.249Z" fill="#070608"/>
<path d="M67.4905 140.473C62.4425 138.481 58.3225 135.785 58.7065 129.729C58.9145 126.585 62.5785 126.777 63.6425 128.857C64.8265 131.182 66.2025 134.969 67.7705 140.217C67.8505 140.494 67.7571 140.579 67.4905 140.473Z" fill="#ED6735"/>
<path d="M147.667 144.032C141.147 142.696 141.827 134.384 144.251 130.216C146.731 125.96 153.667 127.184 154.963 132.4C156.131 137.064 153.739 145.28 147.667 144.032ZM145.931 133.92L148.147 134.104C148.224 134.111 148.303 134.102 148.377 134.078C148.451 134.055 148.52 134.016 148.58 133.966C148.639 133.915 148.688 133.853 148.724 133.784C148.759 133.714 148.78 133.638 148.787 133.56L148.843 132.92C148.86 132.716 148.841 132.511 148.787 132.317C148.733 132.122 148.646 131.942 148.529 131.787C148.412 131.631 148.269 131.504 148.107 131.412C147.946 131.319 147.769 131.264 147.587 131.248L146.963 131.192C146.78 131.177 146.596 131.202 146.421 131.266C146.245 131.33 146.083 131.431 145.941 131.565C145.8 131.699 145.683 131.862 145.598 132.045C145.512 132.228 145.459 132.428 145.443 132.632L145.387 133.28C145.38 133.358 145.389 133.437 145.413 133.511C145.437 133.585 145.475 133.654 145.525 133.714C145.576 133.773 145.638 133.822 145.707 133.858C145.777 133.893 145.853 133.914 145.931 133.92Z" fill="#070608"/>
<path d="M184.562 134.865C186.802 126.769 195.634 128.913 192.266 136.057C191.04 138.654 188.65 140.556 185.098 141.761C184.848 141.846 184.634 141.99 184.458 142.193C183.904 142.822 183.258 143.31 182.522 143.657C182.464 143.686 182.399 143.697 182.334 143.688C182.27 143.68 182.209 143.652 182.161 143.61C182.112 143.567 182.077 143.51 182.06 143.448C182.043 143.385 182.045 143.318 182.066 143.257C182.962 140.457 183.794 137.66 184.562 134.865Z" fill="#ED6735"/>
<path d="M96.2427 133.249C96.1063 133.2 95.985 133.116 95.891 133.007C95.797 132.898 95.7335 132.766 95.7067 132.625C95.5094 131.585 95.88 130.79 96.8187 130.241C97.08 130.086 97.352 130.067 97.6347 130.185C98.6107 130.59 99.1014 131.411 99.1067 132.649C99.1072 132.829 99.0648 133.007 98.9831 133.167C98.9014 133.328 98.7827 133.466 98.637 133.571C98.4913 133.676 98.3228 133.744 98.1456 133.77C97.9684 133.796 97.7878 133.779 97.6187 133.721L96.2427 133.249ZM98.1652 132.781C98.2168 132.721 98.2528 132.649 98.2709 132.568C98.2891 132.488 98.2892 132.4 98.2712 132.311C98.2533 132.222 98.2175 132.132 98.1661 132.048C98.1147 131.964 98.0486 131.886 97.9716 131.819C97.8946 131.752 97.8081 131.698 97.7172 131.659C97.6263 131.62 97.5327 131.598 97.4417 131.593C97.3507 131.588 97.2643 131.6 97.1871 131.63C97.11 131.659 97.0437 131.705 96.9921 131.765C96.9405 131.824 96.9046 131.896 96.8864 131.977C96.8682 132.057 96.8681 132.145 96.8861 132.234C96.9041 132.323 96.9398 132.413 96.9913 132.497C97.0427 132.582 97.1088 132.659 97.1858 132.726C97.2628 132.793 97.3493 132.847 97.4402 132.886C97.5311 132.925 97.6247 132.947 97.7156 132.953C97.8066 132.958 97.8931 132.945 97.9703 132.916C98.0474 132.886 98.1136 132.84 98.1652 132.781Z" fill="#EBE1DA"/>
<path d="M145.931 133.921C145.853 133.915 145.777 133.893 145.708 133.858C145.638 133.822 145.576 133.773 145.526 133.714C145.475 133.655 145.437 133.586 145.413 133.511C145.389 133.437 145.38 133.359 145.387 133.281L145.443 132.633C145.46 132.428 145.513 132.229 145.598 132.046C145.684 131.862 145.801 131.699 145.942 131.565C146.083 131.432 146.246 131.33 146.421 131.266C146.596 131.202 146.78 131.177 146.963 131.193L147.587 131.249C147.769 131.264 147.946 131.32 148.108 131.412C148.27 131.504 148.413 131.632 148.529 131.787C148.646 131.942 148.734 132.122 148.788 132.317C148.841 132.511 148.86 132.717 148.843 132.921L148.787 133.561C148.781 133.639 148.759 133.714 148.724 133.784C148.688 133.854 148.64 133.915 148.58 133.966C148.521 134.017 148.452 134.055 148.377 134.079C148.303 134.102 148.225 134.111 148.147 134.105L145.931 133.921Z" fill="#EBE1DA"/>
<path d="M97.1856 132.726C97.5096 133.007 97.948 133.031 98.165 132.781C98.382 132.53 98.2952 132.1 97.9713 131.819C97.6474 131.539 97.2089 131.514 96.9919 131.765C96.775 132.015 96.8617 132.446 97.1856 132.726Z" fill="#9CC49A"/>
<path d="M59.7787 145.169C59.896 145.361 60.1841 145.547 60.6427 145.729C62.4507 146.651 64.432 147.163 66.5867 147.265C66.8534 147.275 67.0988 147.358 67.3228 147.513C68.5548 148.369 69.5387 148.993 70.0187 150.537C72.9147 159.889 81.6267 173.081 90.2587 177.601C92.4507 178.747 95.5014 180.137 99.4107 181.769C100.299 182.137 101.563 182.017 102.387 182.785C102.573 182.966 102.797 183.07 103.059 183.097C107.64 183.625 112.125 184.622 116.515 186.089C116.771 186.174 116.904 186.353 116.915 186.625L117.019 189.073C117.029 189.393 116.877 189.55 116.563 189.545C112.941 189.502 109.499 190.035 106.235 191.145C103.947 191.481 101.547 193.409 100.035 193.257C99.768 193.23 99.5254 193.297 99.3067 193.457C89.5227 200.681 85.8987 215.985 85.2107 227.721C60.2827 217.537 40.9707 197.049 30.2188 172.553L32.3947 173.569C32.6507 173.686 32.8934 173.667 33.1228 173.513L35.0507 172.233C35.2932 172.068 35.469 171.821 35.5467 171.537C36.5787 167.633 36.1227 169.153 39.2347 167.473C40.1147 166.998 40.9787 166.494 41.8267 165.961C41.9469 165.885 42.0463 165.78 42.1162 165.656C42.186 165.532 42.224 165.392 42.2267 165.249C42.2427 163.409 43.112 162.227 44.8347 161.705C45.1014 161.619 45.2987 161.451 45.4267 161.201C46.0987 159.857 50.7067 159.929 52.1787 159.849C52.3087 159.842 52.4337 159.796 52.5377 159.718C52.6417 159.639 52.7201 159.532 52.7627 159.409L53.5387 157.249C53.6134 157.035 53.7627 156.897 53.9867 156.833C56.1254 156.23 58.0267 155.153 59.6907 153.601C59.8046 153.492 59.9532 153.429 60.1096 153.421C60.2661 153.414 60.4201 153.464 60.5437 153.562C60.6674 153.659 60.7526 153.798 60.784 153.954C60.8153 154.109 60.7908 154.27 60.7147 154.409C60.4267 154.921 60.3734 155.454 60.5547 156.009C60.6667 156.339 60.8774 156.427 61.1867 156.273C66.2667 153.777 58.7787 148.297 59.7787 145.169Z" fill="#67AA79"/>
<path d="M89.021 158.488C94.937 158.478 99.7283 155.791 99.7225 152.486C99.7167 149.181 94.9161 146.51 89.0001 146.52C83.084 146.531 78.2928 149.218 78.2985 152.523C78.3043 155.828 83.1049 158.499 89.021 158.488Z" fill="#ED6735"/>
<path d="M120.139 148.96L118.107 147.624C122.011 145.352 127.171 149.368 124.267 153.408C122.523 155.84 120.251 156.579 117.451 155.624C117.131 155.518 116.971 155.294 116.971 154.952L116.955 153C116.95 152.648 117.123 152.451 117.475 152.408C121.123 151.987 122.011 150.838 120.139 148.96Z" fill="#ED6926"/>
<path d="M160.491 147.296C162.667 147.824 173.715 151.408 168.211 155.584C166.872 156.603 165.763 157.363 164.883 157.864L159.107 158.944C153.619 159.408 149.312 157.808 146.187 154.144C145.942 153.857 145.801 153.496 145.785 153.12C145.769 152.745 145.879 152.376 146.099 152.072C149.427 147.411 154.224 145.819 160.491 147.296Z" fill="#ED6735"/>
<path d="M118.106 147.625L120.138 148.96C120.346 151.456 119.13 151.144 117.202 151.008C116.93 150.987 116.773 150.843 116.73 150.577C116.458 148.843 116.917 147.859 118.106 147.625Z" fill="#FCE8A3"/>
<path d="M137.338 177.984C128.832 174.496 121.477 175.886 115.274 182.152C111.632 178.675 109.21 174.646 108.01 170.064L106.242 160.824C106.194 160.563 106.28 160.507 106.498 160.656C109.09 162.4 111.544 163.323 113.858 163.424C120.376 163.702 126.906 163.806 133.45 163.736C136.154 163.712 139.242 163.624 141.042 161.648C141.277 161.387 141.416 161.43 141.458 161.776C142.178 167.819 140.805 173.222 137.338 177.984ZM114.682 164.952C114.418 168.544 128.618 169.096 131.018 168.76C133.066 168.472 134.733 167.411 136.018 165.576C136.086 165.48 136.126 165.367 136.134 165.25C136.141 165.133 136.116 165.016 136.062 164.911C136.007 164.807 135.925 164.72 135.824 164.66C135.724 164.599 135.608 164.568 135.49 164.568L115.082 164.584C114.832 164.584 114.698 164.707 114.682 164.952Z" fill="#60080C"/>
<path d="M131.018 168.761C128.618 169.097 114.418 168.545 114.682 164.953C114.698 164.708 114.832 164.585 115.082 164.585L135.49 164.569C135.608 164.568 135.723 164.6 135.824 164.66C135.925 164.721 136.007 164.808 136.062 164.912C136.116 165.016 136.141 165.133 136.133 165.25C136.126 165.368 136.086 165.481 136.018 165.577C134.733 167.412 133.066 168.473 131.018 168.761Z" fill="#FCECDE"/>
<path d="M137.339 177.985L133.387 181.849C127.275 184.798 121.238 184.899 115.275 182.153C121.478 175.886 128.833 174.497 137.339 177.985Z" fill="#CF3722"/>
<path d="M106.235 191.145C106.299 191.502 106.238 191.787 106.051 192L104.651 192.833C102.87 193.393 101.243 194.505 99.7709 196.169C91.6216 205.39 87.2163 216.11 86.5549 228.329L85.2109 227.721C85.8989 215.985 89.5229 200.68 99.3069 193.456C99.5256 193.296 99.7682 193.23 100.035 193.256C101.547 193.408 103.947 191.481 106.235 191.145Z" fill="#9CC49A"/>
<path d="M140.979 191.225C148.904 192.819 154.256 196.961 157.035 203.649C160.069 210.955 162.064 219.563 163.019 229.473C163.04 229.675 162.949 229.785 162.747 229.801C162.389 229.827 162.179 229.619 162.115 229.177C160.379 216.881 155.811 195.001 141.035 192.041C141.104 191.929 141.085 191.657 140.979 191.225Z" fill="#9CC49A"/>
<path d="M106.05 192.001C106.12 192.001 106.189 192.009 106.258 192.025C106.354 192.051 106.389 192.113 106.362 192.209C105.813 194.481 106.178 196.851 107.458 199.321C110.573 205.091 115.88 208.665 123.378 210.041C120.92 210.179 119.213 210.033 118.258 209.601C110.466 206.073 106.042 201.489 104.65 192.833L106.05 192.001Z" fill="#56915F"/>
<path d="M139.107 198.256C135.198 205.078 129.955 209.006 123.379 210.041C115.88 208.665 110.574 205.091 107.459 199.321L108.323 199.185C108.654 199.131 108.72 198.971 108.523 198.704C107.99 197.968 107.88 197.163 108.195 196.289C108.302 195.995 108.486 195.934 108.747 196.104L110.203 197.049C110.379 197.161 110.571 197.222 110.779 197.233C116.027 197.473 117.395 192.705 122.403 193.073C122.595 193.089 122.707 193.193 122.739 193.385L122.779 193.585C122.783 193.609 122.796 193.63 122.815 193.645C122.834 193.66 122.859 193.667 122.883 193.665C125.374 193.233 127.792 193.481 130.139 194.409C130.347 194.494 130.451 194.424 130.451 194.2V193.633C130.451 193.329 130.566 193.275 130.795 193.473C133.371 195.673 137.451 195.456 139.107 198.256Z" fill="#FCB468"/>
<path d="M96.8829 211.32C93.2509 208.624 93.299 203.84 96.819 201.384C96.995 201.262 97.1736 201.254 97.355 201.36C99.651 202.664 101.755 204.344 102.299 207.104C102.347 207.35 102.307 207.579 102.179 207.792C101.144 209.611 99.6296 210.83 97.6349 211.448C97.5084 211.488 97.3743 211.497 97.2436 211.475C97.1129 211.452 96.9893 211.399 96.8829 211.32Z" fill="#83B890"/>
<path d="M156.035 232.104C155.8 232.424 155.371 232.515 154.747 232.376C154.843 230.352 154.843 213.28 155.187 212.984C155.299 212.883 155.358 212.91 155.363 213.064L156.035 232.104Z" fill="#15483B"/>
</svg>
